<?xml version="1.0" encoding="utf-8"?>
<!-- Generator: Adobe Illustrator 23.1.0, SVG Export Plug-In . SVG Version: 6.00 Build 0)  -->
<svg version="1.1" id="Camada_1" xmlns="http://www.w3.org/2000/svg" xmlns:xlink="http://www.w3.org/1999/xlink" x="0px" y="0px"
	 width="16px" height="19.7px" viewBox="0 0 16 19.7" style="enable-background:new 0 0 16 19.7;" xml:space="preserve">
<style type="text/css">
	.st0{fill:#F44545;}
</style>
<g id="Grupo_7" transform="translate(-16.483 -13.5)">
	<path id="Caminho_2" class="st0" d="M24.5,30.5c0.2,0,0.3-0.1,0.3-0.3v-11c0-0.2-0.1-0.3-0.3-0.3c-0.2,0-0.3,0.1-0.3,0.3v11
		C24.1,30.4,24.3,30.5,24.5,30.5z"/>
	<path id="Caminho_3" class="st0" d="M21.1,30.5c0.2,0,0.3-0.1,0.3-0.3c0,0,0,0,0,0v-11c0-0.2-0.1-0.3-0.3-0.3
		c-0.2,0-0.3,0.1-0.3,0.3v11C20.8,30.4,21,30.5,21.1,30.5z"/>
	<path id="Caminho_4" class="st0" d="M27.8,30.5c0.2,0,0.3-0.1,0.3-0.3v-11c0-0.2-0.1-0.3-0.3-0.3c-0.2,0-0.3,0.1-0.3,0.3v11
		C27.5,30.4,27.6,30.5,27.8,30.5L27.8,30.5z"/>
	<path id="Caminho_5" class="st0" d="M32.2,15.5h-4.7c0-0.6-0.2-1.1-0.6-1.6c-0.3-0.3-0.7-0.4-1-0.4h-3.3c-0.4,0-0.8,0.1-1,0.4
		c-0.4,0.4-0.6,1-0.6,1.6h-4c-0.2,0-0.3,0.2-0.3,0.3c0,0.2,0.1,0.3,0.3,0.3h0.7l0.6,15.4c0,0.9,0.7,1.6,1.6,1.7c0,0,0,0,0.1,0h9.4
		c0.9,0,1.6-0.7,1.6-1.6c0,0,0,0,0-0.1l0.6-15.4h0.7c0.2,0,0.3-0.2,0.3-0.3C32.5,15.7,32.3,15.5,32.2,15.5z M21.9,14.4
		c0.1-0.2,0.4-0.2,0.6-0.2h3.3c0.2,0,0.4,0.1,0.6,0.2c0.2,0.3,0.4,0.7,0.4,1.1h-5.3C21.5,15.1,21.7,14.7,21.9,14.4z M30.2,31.5
		c0,0.5-0.4,1-0.9,1c0,0,0,0,0,0h-9.4c-0.5,0-1-0.4-1-1c0,0,0,0,0,0l-0.6-15.3h12.7L30.2,31.5z"/>
</g>
</svg>
