<svg id="help_outline_black_36dp" xmlns="http://www.w3.org/2000/svg" width="24.061" height="24.061" viewBox="0 0 24.061 24.061">
  <path id="Caminho_346" data-name="Caminho 346" d="M0,0H24.061V24.061H0Z" fill="none"/>
  <path id="Caminho_347" data-name="Caminho 347" d="M11.028,18.049h2.006V16.043H11.028ZM12.031,2A10.031,10.031,0,1,0,22.061,12.031,10.034,10.034,0,0,0,12.031,2Zm0,18.055a8.025,8.025,0,1,1,8.025-8.025A8.035,8.035,0,0,1,12.031,20.055Zm0-14.043a4.011,4.011,0,0,0-4.012,4.012h2.006a2.006,2.006,0,1,1,4.012,0c0,2.006-3.009,1.755-3.009,5.015h2.006c0-2.257,3.009-2.508,3.009-5.015A4.011,4.011,0,0,0,12.031,6.012Z" fill="#5573a9"/>
</svg>
