<svg xmlns="http://www.w3.org/2000/svg" width="97.818" height="35.354" viewBox="0 0 97.818 35.354">
  <g id="Grupo_436" data-name="Grupo 436" transform="translate(0 0)">
    <path id="Caminho_248" data-name="Caminho 248" d="M355.852,661.878c-.493.312-.951.609-1.407.841a2.726,2.726,0,0,1-1.2.347.471.471,0,0,1-.529-.368,2.724,2.724,0,0,1,.015-.994,8.916,8.916,0,0,1,.371-1.439q.27-.8.618-1.641t.725-1.682q.377-.84.707-1.571t.565-1.307a4.434,4.434,0,0,0,.283-.883.691.691,0,0,0-.124-.577,1.026,1.026,0,0,0-.782-.215,4.258,4.258,0,0,0-.749.076,4.437,4.437,0,0,0-.825.236,3.18,3.18,0,0,0-.746.417,1.543,1.543,0,0,0-.5.619c-.282.695-2.731,9.546-3.367,10.741a1.649,1.649,0,0,0,.227.493,1.674,1.674,0,0,0,.734.563,3.154,3.154,0,0,0,1.221.2,5.251,5.251,0,0,0,1.8-.292c3.068-1.1,5.617-5.492,5.617-5.492C358.843,659.295,356.932,661.195,355.852,661.878Z" transform="translate(-261.436 -637.64)" fill="#f58400"/>
    <path id="Caminho_249" data-name="Caminho 249" d="M363.7,641.549a1.308,1.308,0,0,0-.427-.605,1.946,1.946,0,0,0-.719-.34,3.682,3.682,0,0,0-.927-.112,3.531,3.531,0,0,0-1.377.243,3.211,3.211,0,0,0-.954.6,2.793,2.793,0,0,0-.585.758,2.457,2.457,0,0,0-.258.723,1.784,1.784,0,0,0,.358,1.536,2.273,2.273,0,0,0,1.77.577,3.555,3.555,0,0,0,1.287-.215,3.191,3.191,0,0,0,.956-.563,2.653,2.653,0,0,0,.627-.792,3.05,3.05,0,0,0,.3-.918A1.794,1.794,0,0,0,363.7,641.549Z" transform="translate(-265.969 -631.973)" fill="#f58400"/>
    <path id="Caminho_250" data-name="Caminho 250" d="M209.511,647.788q-1.617.882-3.193,1.853t-3.15,1.934a32.647,32.647,0,0,1-3.219,1.728,20.862,20.862,0,0,1-3.4,1.238,14.155,14.155,0,0,1-3.7.472,7.7,7.7,0,0,1-2.737-.446,4.293,4.293,0,0,1-1.9-1.354,5.091,5.091,0,0,1-.97-2.272,9.541,9.541,0,0,1,.039-3.2,17.714,17.714,0,0,1,.711-2.807,30.083,30.083,0,0,1,1.26-3.145,36.732,36.732,0,0,1,1.717-3.252,35.829,35.829,0,0,1,2.084-3.136,31.3,31.3,0,0,1,2.366-2.824,19.045,19.045,0,0,1,2.554-2.281,12.78,12.78,0,0,1,2.654-1.524,6.887,6.887,0,0,1,2.667-.561c5.8,1.093.129,8.885-3.992,9.381a3.4,3.4,0,1,0-1.947,6.181s1.408.28,4.5-1.438l0,0a13.925,13.925,0,0,0,2-1.015,16.217,16.217,0,0,0,2.491-1.88,17.816,17.816,0,0,0,2.139-2.325,14.687,14.687,0,0,0,1.593-2.584,9.648,9.648,0,0,0,.853-2.664,7.387,7.387,0,0,0-.149-3.4,5.856,5.856,0,0,0-1.392-2.388,5.788,5.788,0,0,0-2.218-1.4,7.78,7.78,0,0,0-2.607-.454,13.067,13.067,0,0,0-4.029.642,18.585,18.585,0,0,0-3.877,1.773,25.419,25.419,0,0,0-3.632,2.655,33.089,33.089,0,0,0-3.286,3.305,38.06,38.06,0,0,0-2.838,3.724,38.727,38.727,0,0,0-2.3,3.893,31.488,31.488,0,0,0-1.662,3.831,20.016,20.016,0,0,0-.925,3.519,13.286,13.286,0,0,0,.034,4.589,9.8,9.8,0,0,0,1.567,3.831,8.335,8.335,0,0,0,2.989,2.619,9.1,9.1,0,0,0,4.314.971,24.841,24.841,0,0,0,4.133-.32,23.233,23.233,0,0,0,3.513-.864,20.681,20.681,0,0,0,3-1.265,29.172,29.172,0,0,0,2.58-1.515q1.2-.792,2.254-1.6t2.034-1.541C209.1,651.978,210.589,647.2,209.511,647.788Z" transform="translate(-181.85 -624.221)" fill="#f58400"/>
    <path id="Caminho_251" data-name="Caminho 251" d="M363.7,641.549a1.308,1.308,0,0,0-.427-.605,1.946,1.946,0,0,0-.719-.34,3.682,3.682,0,0,0-.927-.112,3.531,3.531,0,0,0-1.377.243,3.211,3.211,0,0,0-.954.6,2.793,2.793,0,0,0-.585.758,2.457,2.457,0,0,0-.258.723,1.784,1.784,0,0,0,.358,1.536,2.273,2.273,0,0,0,1.77.577,3.555,3.555,0,0,0,1.287-.215,3.191,3.191,0,0,0,.956-.563,2.653,2.653,0,0,0,.627-.792,3.05,3.05,0,0,0,.3-.918A1.794,1.794,0,0,0,363.7,641.549Z" transform="translate(-265.969 -631.973)" fill="#f58400"/>
    <path id="Caminho_252" data-name="Caminho 252" d="M333.075,662.467a5.944,5.944,0,0,1-1.864.334,2.094,2.094,0,0,1-.5-.056,1.185,1.185,0,0,1-.42-.195,1.5,1.5,0,0,1-.36-.389,3.574,3.574,0,0,1-.324-.626,11.746,11.746,0,0,0,2.46-.931,10.615,10.615,0,0,0,2.056-1.363,7.915,7.915,0,0,0,1.468-1.626,4.348,4.348,0,0,0,.71-1.724,3.279,3.279,0,0,0-.059-1.432,2.572,2.572,0,0,0-.622-1.092,2.98,2.98,0,0,0-1.084-.7,4,4,0,0,0-1.449-.25,5,5,0,0,0-1.851.341,6.509,6.509,0,0,0-1.606.917,8.094,8.094,0,0,0-1.349,1.335,10.9,10.9,0,0,0-1.811,3.295c-.083.246-.151.484-.214.719a12.225,12.225,0,0,1-.265,1.478c0,.039-.01.08-.013.119l-.015.009a11.454,11.454,0,0,1-2.119,4.259c.1-.044.205-.086.308-.133q.624-.284,1.215-.577c.372-.191.749-.4,1.128-.612a4.178,4.178,0,0,0,.26.438,3.863,3.863,0,0,0,1.481,1.272,5.008,5.008,0,0,0,2.28.473,8.141,8.141,0,0,0,1.726-.188,11.933,11.933,0,0,0,1.7-.5c.335-.126.66-.267.98-.417a.687.687,0,0,0,.291-.254,9.961,9.961,0,0,0,1.4-3.643c-.5.314-1.01.613-1.547.887A14.281,14.281,0,0,1,333.075,662.467Zm-3.283-3.99a7.354,7.354,0,0,1,.263-.89,6.269,6.269,0,0,1,.416-.911,3.7,3.7,0,0,1,.6-.806,2.868,2.868,0,0,1,.822-.577,2.524,2.524,0,0,1,1.088-.223.557.557,0,0,1,.516.4,1.873,1.873,0,0,1,.073,1.029,1.823,1.823,0,0,1-.5.918,5.944,5.944,0,0,1-1.019.876,6.226,6.226,0,0,1-1.236.66,3.2,3.2,0,0,1-1.165.257Q329.694,658.908,329.791,658.477Z" transform="translate(-249.495 -637.653)" fill="#f58400"/>
    <path id="Caminho_253" data-name="Caminho 253" d="M313.331,627.884a1.516,1.516,0,0,0-.516-.716,1.576,1.576,0,0,0-.973-.271,3.838,3.838,0,0,0-1.859.528,8.978,8.978,0,0,0-1.905,1.453,18.309,18.309,0,0,0-1.876,2.169,30.7,30.7,0,0,0-1.777,2.677q-.85,1.433-1.591,2.989t-1.343,3.1q-.6,1.543-1.019,3a22.739,22.739,0,0,0-.613,2.69,16.358,16.358,0,0,0-.209,3.08c0,.114.013.221.019.331-.233.147-.461.3-.706.434q-.581.327-1.13.584a8.633,8.633,0,0,1-1.024.41,2.679,2.679,0,0,1-.79.153.562.562,0,0,1-.416-.132.638.638,0,0,1-.162-.375,2.286,2.286,0,0,1,0-.57q.038-.327.1-.716a6,6,0,0,1,.2-.744q.17-.535.419-1.244l.536-1.529q.287-.821.546-1.592t.447-1.418a8.88,8.88,0,0,0,.248-1.022.613.613,0,0,0-.328-.64,2.081,2.081,0,0,0-1.12-.25,3.025,3.025,0,0,0-1.189.23,1.112,1.112,0,0,0-.669.563l-2.537,7.063a4.474,4.474,0,0,1-.5.994,3.877,3.877,0,0,1-.639.737,2.837,2.837,0,0,1-.7.459,1.63,1.63,0,0,1-.67.16.549.549,0,0,1-.354-.111.684.684,0,0,1-.212-.292,1.3,1.3,0,0,1-.085-.41,2.214,2.214,0,0,1,.026-.48c0-.009.046-.153.133-.431s.2-.644.353-1.1.316-.971.5-1.55.382-1.175.584-1.787.4-1.219.6-1.822.375-1.149.539-1.64q.037-.236-.266-.4a2.692,2.692,0,0,0-1.058-.188,1.864,1.864,0,0,0-.861.237,2.988,2.988,0,0,0-.728.57,4.925,4.925,0,0,0-.6.779,9.13,9.13,0,0,0-.471.848q-.2.417-.337.772t-.2.563c-.256.751-.49,1.451-.708,2.113.127.128-1.04,3.48-1.254,5.986a2.088,2.088,0,0,0,.326.827,1.46,1.46,0,0,0,.656.515,2.35,2.35,0,0,0,.863.153,3.644,3.644,0,0,0,1.218-.229,7,7,0,0,0,1.3-.633,11.252,11.252,0,0,0,1.318-.952,14.824,14.824,0,0,0,1.279-1.2,8.166,8.166,0,0,0,.152,1.161,3,3,0,0,0,.33.9,1.6,1.6,0,0,0,.573.584,1.741,1.741,0,0,0,.9.208,5.548,5.548,0,0,0,1.2-.146,11.39,11.39,0,0,0,1.336-.39q.683-.244,1.371-.563t1.308-.668c.254-.142.491-.284.719-.426a4.618,4.618,0,0,0,.845,1.671,1.7,1.7,0,0,0,1.334.66l.043,0a.7.7,0,0,1,.073-.057,9.355,9.355,0,0,0,3.148-3.908c-.111.053-.228.117-.336.164a6.834,6.834,0,0,1-.792.3,2.258,2.258,0,0,1-.64.111q-.115,0-.218-.16a1.5,1.5,0,0,1-.175-.431,3.38,3.38,0,0,1-.1-.612,3.04,3.04,0,0,1,.032-.7l.031-.195q.087-.278.2-.57t.23-.549q.112-.257.226-.48a3.725,3.725,0,0,1,.208-.361q.857-1.251,1.817-2.565t1.919-2.67q.96-1.356,1.865-2.732t1.645-2.746a23.576,23.576,0,0,0,1.262-2.725,13.133,13.133,0,0,0,.73-2.662,7.073,7.073,0,0,0,.089-1.147A3.042,3.042,0,0,0,313.331,627.884Zm-3.037,2.857q-.024.285-.087.688a15.219,15.219,0,0,1-1.035,2.732q-.7,1.467-1.583,2.941t-1.821,2.864q-.944,1.39-1.764,2.5a20.916,20.916,0,0,1,.636-2.746,28.654,28.654,0,0,1,.979-2.746q.555-1.334,1.179-2.516a19.961,19.961,0,0,1,1.245-2.071,8.785,8.785,0,0,1,1.183-1.412,1.574,1.574,0,0,1,.978-.521Q310.318,630.456,310.294,630.741Z" transform="translate(-231.087 -625.496)" fill="#f58400"/>
    <g id="Grupo_374" data-name="Grupo 374" transform="translate(22.04 1.401)">
      <path id="Caminho_254" data-name="Caminho 254" d="M239.167,652.932a1.977,1.977,0,0,0,.461.4.369.369,0,0,0,.39.011,9.261,9.261,0,0,0,3.629-3.663c-.071.033-.147.075-.216.106a6.8,6.8,0,0,1-.792.3,2.259,2.259,0,0,1-.64.111q-.115,0-.218-.16a1.517,1.517,0,0,1-.175-.431,3.336,3.336,0,0,1-.1-.612,3.043,3.043,0,0,1,.032-.7l.031-.195q.087-.278.2-.57t.23-.549q.112-.257.226-.48a3.617,3.617,0,0,1,.208-.361q.857-1.251,1.817-2.565t1.919-2.67q.96-1.356,1.865-2.732t1.645-2.746a23.571,23.571,0,0,0,1.262-2.725,13.1,13.1,0,0,0,.73-2.662,7.059,7.059,0,0,0,.089-1.147,3.068,3.068,0,0,0-.162-1.008,1.52,1.52,0,0,0-.517-.716,1.576,1.576,0,0,0-.973-.271,3.838,3.838,0,0,0-1.859.528,8.978,8.978,0,0,0-1.905,1.453,18.308,18.308,0,0,0-1.876,2.169,30.7,30.7,0,0,0-1.777,2.677q-.85,1.433-1.591,2.989t-1.343,3.1q-.6,1.543-1.019,3a22.63,22.63,0,0,0-.613,2.69c-.033.206-.059.409-.084.612-.066.01-.123.016-.193.028q-.425.075-.911.153a.366.366,0,0,1-.387-.525q.2-.386.391-.761.353-.681.638-1.26t.472-1.038a3.6,3.6,0,0,0,.23-.732.772.772,0,0,0-.179-.7,1.564,1.564,0,0,0-1.073-.256,3.3,3.3,0,0,0-.725.094,3.745,3.745,0,0,0-.808.29,3.073,3.073,0,0,0-.739.511,2.053,2.053,0,0,0-.514.757q-.444.92-.96,1.967t-1.042,2.154h-.228c-.245,0-.52,0-.823-.008q-.222,0-.493-.014a.366.366,0,0,1-.3-.557q.7-1.139,1.349-2.238.8-1.353,1.492-2.665t1.255-2.6a24.248,24.248,0,0,0,.965-2.6c.013-.08-.034-.156-.139-.23a1.312,1.312,0,0,0-.436-.179,5.332,5.332,0,0,0-.667-.11,7.619,7.619,0,0,0-.826-.042,9.941,9.941,0,0,0-1.07.059,6.756,6.756,0,0,0-1.02.187,4.006,4.006,0,0,0-.83.315,1.169,1.169,0,0,0-.5.459q-.443,1.243-.811,2.239t-.706,1.856q-.339.86-.67,1.626t-.7,1.524q-.365.758-.8,1.566t-.935,1.715a.361.361,0,0,1-.039.057,11.171,11.171,0,0,0-.914,1.234,2.9,2.9,0,0,0-.446,1.039.92.92,0,0,0,.054.545.419.419,0,0,0,.421.221,5.429,5.429,0,0,0,1.462-.213q.761-.212,1.61-.477t1.794-.477a8.85,8.85,0,0,1,1.451-.2.368.368,0,0,1,.363.506q-.287.7-.518,1.351a8.928,8.928,0,0,0-.424,1.566,2.681,2.681,0,0,0-.009,1,1.081,1.081,0,0,0,.351.6,1.437,1.437,0,0,0,.672.3,5.356,5.356,0,0,0,.969.076q.719,0,1.508-.06t1.544-.06a.391.391,0,0,0,.226-.042.2.2,0,0,0,.064-.128.817.817,0,0,0-.173-.511q-.2-.324-.44-.707a8.837,8.837,0,0,1-.429-.774,1.176,1.176,0,0,1-.143-.7l.051-.324a8.826,8.826,0,0,1,.3-.979q.145-.4.315-.824a.375.375,0,0,1,.359-.229q.644.027,1.247.049.532.019,1.033.023a.361.361,0,0,1,.355.338,9.751,9.751,0,0,0,.319,1.867A4.7,4.7,0,0,0,239.167,652.932Zm3.747-13.209a28.511,28.511,0,0,1,.98-2.746q.554-1.334,1.179-2.516a19.677,19.677,0,0,1,1.245-2.071,8.787,8.787,0,0,1,1.183-1.412,1.574,1.574,0,0,1,.978-.521q.114,0,.091.285t-.084.663a.471.471,0,0,1-.009.047,15.268,15.268,0,0,1-1.029,2.71q-.7,1.467-1.583,2.941t-1.821,2.864q-.393.578-.763,1.108a.366.366,0,0,1-.654-.3Q242.753,640.255,242.913,639.723Z" transform="translate(-223.943 -626.897)" fill="#f58400"/>
      <path id="Caminho_255" data-name="Caminho 255" d="M270.045,662.657a3.882,3.882,0,0,1-1.583.41,1.647,1.647,0,0,1-1.681-1.049,2.682,2.682,0,0,1-.193-.994,6.148,6.148,0,0,1,.072-1.043q.053-.333.16-.827a9.224,9.224,0,0,1,.293-1.036,10.709,10.709,0,0,1,.445-1.091,4.634,4.634,0,0,1,.622-.987,3.144,3.144,0,0,1,.822-.709,2.012,2.012,0,0,1,1.045-.271.249.249,0,0,1,.28.223,1.788,1.788,0,0,1-.017.556c-.024.149-.057.315-.1.5s-.079.362-.105.528a1.747,1.747,0,0,0,.055.96q.152.347.825.347a1.671,1.671,0,0,0,.837-.223,2.564,2.564,0,0,0,.7-.591,3.434,3.434,0,0,0,.51-.827,3.76,3.76,0,0,0,.276-.931,2.763,2.763,0,0,0-.077-1.272,2.5,2.5,0,0,0-.611-1.022,2.928,2.928,0,0,0-1.082-.674,4.2,4.2,0,0,0-1.472-.243,4.868,4.868,0,0,0-1.815.34,6.524,6.524,0,0,0-1.6.918,8.2,8.2,0,0,0-1.358,1.341,11.564,11.564,0,0,0-1.085,1.606,11.2,11.2,0,0,0-.781,1.717c-.156.441-1.495,5.526-2.841,6.8.294-.114.589-.234.884-.369q.625-.284,1.215-.577c.28-.143.565-.3.85-.461.057.1.114.2.179.294a3.918,3.918,0,0,0,1.467,1.265,4.848,4.848,0,0,0,2.237.473,5.372,5.372,0,0,0,1.533-.229,9.325,9.325,0,0,0,1.512-.6c.263-.131.522-.274.777-.426a.164.164,0,0,0,.029-.022,7.169,7.169,0,0,0,2-3.59.127.127,0,0,0-.2-.123c-.388.308-.783.6-1.189.872A13.312,13.312,0,0,1,270.045,662.657Z" transform="translate(-241.402 -639.041)" fill="#f58400"/>
    </g>
  </g>
</svg>
