<svg id="Camada_1" data-name="Camada 1" xmlns="http://www.w3.org/2000/svg" viewBox="0 0 678.64 954.41"><defs><style>.cls-1{fill:#ff9100;}.cls-2{fill:#f49911;}.cls-3,.cls-6{fill:#1d1d1b;}.cls-4,.cls-5,.cls-7{fill:none;stroke:#1d1d1b;}.cls-4{stroke-miterlimit:10;}.cls-5{stroke-linecap:round;stroke-linejoin:round;}.cls-6{font-size:56px;font-family:Pacifico-Regular, Pacifico;}.cls-10,.cls-8{fill:#fff;}.cls-9{fill:#ff9e1d;}.cls-10{font-size:12px;font-family:MyriadPro-Regular, Myriad Pro;letter-spacing:-0.02em;}.cls-11{letter-spacing:0em;}</style></defs><rect class="cls-1" x="471.82" y="589.26" width="206.82" height="87.52"/><rect class="cls-2" x="26.24" y="648.75" width="241.1" height="100.74"/><path class="cls-3" d="M-53.23-550a24.69,24.69,0,0,1-10.16,1.83c-10.82,0-18.94-6.85-18.94-19.46,0-12.06,8.13-20.16,20.06-20.16,4.75,0,7.81,1,9.12,1.69l-1.23,4a18.2,18.2,0,0,0-7.73-1.58c-9,0-15,5.76-15,15.85,0,9.4,5.42,15.41,14.72,15.41A20.19,20.19,0,0,0-54.23-554Z" transform="translate(471.82 589.26)"/><path class="cls-3" d="M-32.29-548.79l-.44-3.48h-.15a10.26,10.26,0,0,1-8.43,4.11c-5.57,0-8.43-4-8.43-7.91,0-6.68,5.92-10.35,16.57-10.27v-.59c0-2.24-.63-6.39-6.27-6.36a13.45,13.45,0,0,0-7.19,2.06l-1.13-3.34a17.35,17.35,0,0,1,9.1-2.41c8.42,0,10.48,5.76,10.48,11.28v10.31a43,43,0,0,0,.41,6.6Zm-.78-14.08c-5.42-.11-11.64.86-11.64,6.19a4.42,4.42,0,0,0,4.69,4.8,6.89,6.89,0,0,0,6.71-4.61,5.06,5.06,0,0,0,.24-1.58Z" transform="translate(471.82 589.26)"/><path class="cls-3" d="M-20.1-589.26h5v40.47h-5Z" transform="translate(471.82 589.26)"/><path class="cls-3" d="M13-549.79a18.94,18.94,0,0,1-7.91,1.6c-8.31,0-13.76-5.66-13.76-14.09S-2.86-577,6.15-577a16.15,16.15,0,0,1,7,1.47L12-571.66A12.27,12.27,0,0,0,6.15-573c-6.29,0-9.74,4.71-9.73,10.44,0,6.39,4.11,10.31,9.6,10.31a14.65,14.65,0,0,0,6.14-1.32Z" transform="translate(471.82 589.26)"/><path class="cls-3" d="M42-556.33c0,2.89.09,5.36.23,7.54H37.8l-.27-4.51h-.14a10.3,10.3,0,0,1-9.13,5.14c-4.31,0-9.49-2.42-9.49-12.08v-16.12h5v15.23c0,5.26,1.63,8.83,6.16,8.83a7.28,7.28,0,0,0,6.63-4.6,7.7,7.7,0,0,0,.46-2.57v-16.89h5Z" transform="translate(471.82 589.26)"/><path class="cls-3" d="M50.35-589.26h5v40.47h-5Z" transform="translate(471.82 589.26)"/><path class="cls-3" d="M66.61-561.67c.1,6.78,4.4,9.57,9.43,9.57a18.53,18.53,0,0,0,7.64-1.41l.88,3.56a22.28,22.28,0,0,1-9.2,1.76c-8.47,0-13.57-5.64-13.57-13.91S66.72-577,74.77-577c9,0,11.34,7.89,11.34,13a12.34,12.34,0,0,1-.17,2.35Zm14.67-3.6c0-3.16-1.29-8.12-6.91-8.12-5.12,0-7.3,4.63-7.7,8.12Z" transform="translate(471.82 589.26)"/><path class="cls-3" d="M98-584.15A3,3,0,0,1,94.77-581a3,3,0,0,1-3-3.11,3,3,0,0,1,3.11-3.12A3,3,0,0,1,98-584.15Zm-5.6,35.36v-27.57h5v27.57Z" transform="translate(471.82 589.26)"/><path class="cls-3" d="M-36.86-186.31c-1.61,4.42-5,5.41-7.22,6.8S-68-167.68-80.31-172.57a9.54,9.54,0,0,1-4.08-2.91,10.91,10.91,0,0,1-2.09-4.89,20.8,20.8,0,0,1,.08-6.89,40.24,40.24,0,0,1,1.53-6,66,66,0,0,1,2.72-6.77c1.08-2.32,2.31-4.66,3.69-7A77.5,77.5,0,0,1-74-213.82a67.37,67.37,0,0,1,5.09-6.08,41.2,41.2,0,0,1,5.5-4.91,27.92,27.92,0,0,1,5.71-3.28,14.94,14.94,0,0,1,5.74-1.21c12.48,2.36.28,19.13-8.59,20.2a7.23,7.23,0,0,0-4.19-1.33A7.32,7.32,0,0,0-72-203.11a7.31,7.31,0,0,0,7.32,7.31s3,.6,9.68-3.09h0a30.6,30.6,0,0,0,4.31-2.18,34.93,34.93,0,0,0,5.36-4,38.78,38.78,0,0,0,4.61-5,31.7,31.7,0,0,0,3.43-5.56,20.94,20.94,0,0,0,1.83-5.73,15.85,15.85,0,0,0-.32-7.33,12.75,12.75,0,0,0-3-5.14,12.55,12.55,0,0,0-4.78-3,16.82,16.82,0,0,0-5.61-1,28.11,28.11,0,0,0-8.67,1.38,40.33,40.33,0,0,0-8.35,3.82A54.91,54.91,0,0,0-74-227a72,72,0,0,0-7.07,7.12,81.18,81.18,0,0,0-6.11,8,82.93,82.93,0,0,0-4.94,8.38,67.9,67.9,0,0,0-3.58,8.24,43.36,43.36,0,0,0-2,7.58,28.69,28.69,0,0,0,.07,9.88,21,21,0,0,0,3.38,8.24,17.81,17.81,0,0,0,6.43,5.64,19.53,19.53,0,0,0,9.29,2.09,44.38,44.38,0,0,0,8.89-.69C-37.23-169.21-35.95-188.8-36.86-186.31Z" transform="translate(471.82 589.26)"/><path class="cls-3" d="M-29.27-184.5a19.36,19.36,0,0,0,.66,4.2,9,9,0,0,0,1.67,3.39,3.26,3.26,0,0,0,2.55,1.26,9.14,9.14,0,0,0,2-.25,18.88,18.88,0,0,0,2.29-.68c.8-.28,1.59-.6,2.39-1s1.57-.73,2.32-1.1c.53-.27,1.08-.58,1.62-.88.11.19.22.38.34.56a7.51,7.51,0,0,0,2.8,2.42,9.33,9.33,0,0,0,4.28.9,10,10,0,0,0,2.92-.44A17.35,17.35,0,0,0-.5-177.23a23.57,23.57,0,0,0,2.74-1.6c.89-.61,1.72-1.23,2.5-1.86l.49-.42a8.28,8.28,0,0,0,0,2.42,4.13,4.13,0,0,0,.68,1.82,2.81,2.81,0,0,0,1.25,1,4.4,4.4,0,0,0,1.65.29A7,7,0,0,0,11.1-176a14.2,14.2,0,0,0,2.49-1.21,21.67,21.67,0,0,0,2.51-1.82,27.63,27.63,0,0,0,2.44-2.3,16.59,16.59,0,0,0,.3,2.22,5.74,5.74,0,0,0,.63,1.71,3.08,3.08,0,0,0,1.09,1.12,3.39,3.39,0,0,0,1.72.4,10.89,10.89,0,0,0,2.28-.28,22.69,22.69,0,0,0,2.55-.75c.87-.31,1.75-.66,2.62-1.07s1.71-.83,2.5-1.28c.48-.27.94-.54,1.37-.81a8.84,8.84,0,0,0,1.62,3.19,3.23,3.23,0,0,0,2.54,1.26,9.14,9.14,0,0,0,2-.25,19.56,19.56,0,0,0,2.3-.68c.79-.28,1.58-.6,2.38-1s1.57-.73,2.32-1.1,1.43-.76,2.15-1.17a8.85,8.85,0,0,0,.5.84,7.32,7.32,0,0,0,2.83,2.43,9.58,9.58,0,0,0,4.35.9,15.51,15.51,0,0,0,3.3-.36,23.09,23.09,0,0,0,3.24-1,28.18,28.18,0,0,0,3.06-1.37c.9-.47,1.74-.94,2.54-1.42a7.61,7.61,0,0,0,0,1,3.45,3.45,0,0,0,.6,1.68,3.22,3.22,0,0,0,1.4,1.08,6.17,6.17,0,0,0,2.33.38,10,10,0,0,0,3.44-.56c5.86-2.1,10.72-10.48,10.72-10.48.65-1.26-3,2.37-5.06,3.67-.94.6-1.82,1.17-2.69,1.61a5.24,5.24,0,0,1-2.29.66.9.9,0,0,1-1-.7,5.27,5.27,0,0,1,0-1.9A17.77,17.77,0,0,1,77-186.1c.35-1,.74-2.06,1.18-3.13s.91-2.14,1.39-3.21l1.35-3c.42-.93.78-1.77,1.08-2.5a8.17,8.17,0,0,0,.54-1.69,1.33,1.33,0,0,0-.24-1.1,2,2,0,0,0-1.49-.41,7.82,7.82,0,0,0-1.43.15,7.46,7.46,0,0,0-1.58.45,6.15,6.15,0,0,0-1.42.79,3,3,0,0,0-1,1.19c-.53,1.32-1.14,2.78-1.82,4.35s-1.33,3.16-2,4.74c-.37.93-.71,1.84-1,2.73-.51.37-1,.75-1.65,1.15a38.2,38.2,0,0,1-3.59,2.08,27,27,0,0,1-3.79,1.6,11.44,11.44,0,0,1-3.56.63,4,4,0,0,1-1-.1,2.19,2.19,0,0,1-.8-.38,2.61,2.61,0,0,1-.69-.74,6.88,6.88,0,0,1-.62-1.19,22.9,22.9,0,0,0,4.7-1.78,20,20,0,0,0,3.92-2.61,15,15,0,0,0,2.81-3.1,8.26,8.26,0,0,0,1.35-3.3,6.32,6.32,0,0,0-.11-2.73,4.9,4.9,0,0,0-1.19-2.08,5.56,5.56,0,0,0-2.07-1.35,7.81,7.81,0,0,0-2.77-.47,9.42,9.42,0,0,0-3.53.65,12.18,12.18,0,0,0-3.07,1.75,15.54,15.54,0,0,0-2.58,2.55,20.83,20.83,0,0,0-2,3,20.21,20.21,0,0,0-1.43,3.25,18.21,18.21,0,0,0-.8,3.15c-.07.43-.12.85-.15,1.28-.42.26-.84.53-1.24.76s-1.11.64-1.69,1-1.13.58-1.67.82a12.6,12.6,0,0,1-1.51.57,4.4,4.4,0,0,1-1.23.21c-.14,0-.28-.1-.41-.3a3,3,0,0,1-.34-.83,6.28,6.28,0,0,1-.18-1.16,6.19,6.19,0,0,1,.06-1.35l.06-.37c.11-.35.24-.71.39-1.09s.3-.72.44-1,.29-.64.43-.92.28-.51.4-.69c1.09-1.59,2.25-3.23,3.47-4.9s2.44-3.37,3.67-5.1,2.4-3.46,3.56-5.22,2.2-3.5,3.14-5.24a45.64,45.64,0,0,0,2.41-5.21,25,25,0,0,0,1.39-5.08,12.58,12.58,0,0,0,.17-2.19,5.79,5.79,0,0,0-.31-1.93,2.89,2.89,0,0,0-1-1.36,3,3,0,0,0-1.86-.52,7.22,7.22,0,0,0-3.55,1,16.73,16.73,0,0,0-3.64,2.77,36.11,36.11,0,0,0-3.59,4.14A58.24,58.24,0,0,0,42-213.59q-1.62,2.73-3,5.7c-.94,2-1.8,4-2.56,5.93s-1.42,3.87-2,5.72a43.42,43.42,0,0,0-1.17,5.14,31.6,31.6,0,0,0-.4,5.88c0,.22,0,.42,0,.63-.45.28-.88.57-1.35.83q-1.11.63-2.16,1.11a17.76,17.76,0,0,1-1.95.79,5.32,5.32,0,0,1-1.51.29,1.08,1.08,0,0,1-.8-.25,1.26,1.26,0,0,1-.31-.72,4.44,4.44,0,0,1,0-1.09c.05-.41.11-.87.19-1.37a11.45,11.45,0,0,1,.39-1.42c.22-.68.48-1.47.8-2.37l1-2.92c.37-1,.72-2.06,1.05-3s.61-1.89.85-2.71a16.24,16.24,0,0,0,.47-1.95,1.18,1.18,0,0,0-.62-1.23,4.07,4.07,0,0,0-2.14-.47,5.81,5.81,0,0,0-2.27.43,2.16,2.16,0,0,0-1.28,1.08l-4.85,13.49a8.65,8.65,0,0,1-1,1.9,7.16,7.16,0,0,1-1.23,1.41,5.19,5.19,0,0,1-1.32.87,3.07,3.07,0,0,1-1.28.31,1,1,0,0,1-.68-.22,1.25,1.25,0,0,1-.4-.55,2.63,2.63,0,0,1-.17-.79,4.76,4.76,0,0,1,0-.91s.09-.29.26-.83.39-1.23.67-2.09.6-1.86,1-3,.73-2.25,1.12-3.42l1.14-3.48c.37-1.15.71-2.19,1-3.13,0-.3-.13-.55-.51-.76a5.14,5.14,0,0,0-2-.35,3.4,3.4,0,0,0-1.65.45,5.53,5.53,0,0,0-1.39,1.09,9.46,9.46,0,0,0-1.13,1.48,14.74,14.74,0,0,0-.9,1.62c-.26.53-.48,1-.65,1.48s-.3.81-.37,1.07q-1.3,3.81-2.26,6.82l-1.08,1a34.41,34.41,0,0,1-3.47,2.63,24.62,24.62,0,0,1-3.5,2,7.42,7.42,0,0,1-3,.78,3.45,3.45,0,0,1-2.1-.57,3.45,3.45,0,0,1-1.11-1.43,5.1,5.1,0,0,1-.37-1.9,11.73,11.73,0,0,1,.14-2c.07-.43.17-1,.31-1.58a17.53,17.53,0,0,1,.55-2c.24-.69.53-1.38.85-2.08a9,9,0,0,1,1.19-1.89,5.88,5.88,0,0,1,1.57-1.35,3.8,3.8,0,0,1,2-.52.47.47,0,0,1,.53.42,3.28,3.28,0,0,1,0,1.07c0,.28-.11.6-.19,1s-.15.69-.2,1a3.32,3.32,0,0,0,.1,1.83c.2.45.72.67,1.58.67a3.15,3.15,0,0,0,1.6-.43,4.92,4.92,0,0,0,1.34-1.13,6.33,6.33,0,0,0,1-1.58A6.74,6.74,0,0,0,4.93-195a5.2,5.2,0,0,0-.15-2.43,4.72,4.72,0,0,0-1.16-1.95,5.7,5.7,0,0,0-2.07-1.29,8,8,0,0,0-2.81-.46,9.39,9.39,0,0,0-3.47.65,12.37,12.37,0,0,0-3,1.75,15.35,15.35,0,0,0-2.59,2.57,21.43,21.43,0,0,0-2.08,3.06,22.86,22.86,0,0,0-1.49,3.28,18.55,18.55,0,0,0-.83,3.21,13,13,0,0,0-.15,1.63c-.17.1-.35.22-.52.31-.54.32-1.1.64-1.68,1s-1.13.58-1.67.82a12.71,12.71,0,0,1-1.52.57,4.28,4.28,0,0,1-1.22.21c-.14,0-.28-.1-.41-.3a2.7,2.7,0,0,1-.34-.83,6.28,6.28,0,0,1-.18-1.16,6.19,6.19,0,0,1,.06-1.35l.06-.37c.11-.35.24-.71.39-1.09s.3-.72.44-1,.29-.64.43-.92.28-.51.4-.69c1.09-1.59,2.25-3.23,3.47-4.9s2.44-3.37,3.66-5.1,2.41-3.46,3.56-5.22,2.2-3.5,3.15-5.24a45.64,45.64,0,0,0,2.41-5.21A25,25,0,0,0-3-220.63a12.58,12.58,0,0,0,.17-2.19,5.79,5.79,0,0,0-.31-1.93,2.84,2.84,0,0,0-1-1.36A3,3,0,0,0-6-226.63a7.28,7.28,0,0,0-3.55,1,16.93,16.93,0,0,0-3.63,2.77,35.16,35.16,0,0,0-3.59,4.14,58.24,58.24,0,0,0-3.39,5.12c-1.08,1.82-2.1,3.72-3,5.7s-1.8,4-2.56,5.93-1.42,3.87-1.95,5.72a43.42,43.42,0,0,0-1.17,5.14c-.06.39-.11.78-.16,1.17C-29.23-188.77-29.27-184.5-29.27-184.5Zm84.52-5a14.49,14.49,0,0,1,.5-1.7,11.66,11.66,0,0,1,.8-1.73,7.07,7.07,0,0,1,1.14-1.54,5.51,5.51,0,0,1,1.57-1.11,4.89,4.89,0,0,1,2.08-.42,1.07,1.07,0,0,1,1,.77,3.62,3.62,0,0,1,.14,2,3.47,3.47,0,0,1-1,1.76,11.4,11.4,0,0,1-1.94,1.67,12.48,12.48,0,0,1-2.36,1.26,6.1,6.1,0,0,1-2.23.49C55-188.52,55.13-189,55.25-189.54Zm-12.88-12.6c.54-1.79,1.17-3.54,1.87-5.24s1.46-3.3,2.26-4.81a37.09,37.09,0,0,1,2.37-3.95,17.11,17.11,0,0,1,2.26-2.7,3,3,0,0,1,1.87-1c.14,0,.2.18.17.54s-.08.8-.17,1.31a28,28,0,0,1-2,5.22q-1.35,2.81-3,5.62t-3.48,5.47c-1.2,1.77-2.33,3.36-3.37,4.78A40.23,40.23,0,0,1,42.37-202.14Zm-62.15,0a54.24,54.24,0,0,1,1.87-5.24q1.07-2.55,2.25-4.81a38.8,38.8,0,0,1,2.38-3.95,16.59,16.59,0,0,1,2.26-2.7,3,3,0,0,1,1.87-1c.14,0,.2.18.17.54s-.09.8-.17,1.31a29.51,29.51,0,0,1-2,5.22q-1.35,2.81-3,5.62t-3.47,5.47Q-19.43-199-21-196.89A40.23,40.23,0,0,1-19.78-202.14Z" transform="translate(471.82 589.26)"/><path class="cls-3" d="M88.56-211a2.48,2.48,0,0,0-.82-1.15,3.56,3.56,0,0,0-1.37-.65A6.71,6.71,0,0,0,84.6-213a6.72,6.72,0,0,0-2.63.47,6.21,6.21,0,0,0-1.83,1.14A5.15,5.15,0,0,0,79-210a4.66,4.66,0,0,0-.5,1.38,3.41,3.41,0,0,0,.69,2.93,4.32,4.32,0,0,0,3.38,1.1,6.68,6.68,0,0,0,2.46-.41A6.16,6.16,0,0,0,86.88-206a5.11,5.11,0,0,0,1.2-1.52,5.91,5.91,0,0,0,.58-1.75A3.5,3.5,0,0,0,88.56-211Z" transform="translate(471.82 589.26)"/><path class="cls-4" d="M-374.87-73.2q-3.09,1.68-6.1,3.54c-2,1.24-4,2.47-6,3.69a58.8,58.8,0,0,1-6.15,3.3,39,39,0,0,1-6.49,2.37,27,27,0,0,1-7.06.9,14.67,14.67,0,0,1-5.23-.85,8.23,8.23,0,0,1-3.62-2.59,9.71,9.71,0,0,1-1.85-4.34,18.19,18.19,0,0,1,.07-6.1A34.57,34.57,0,0,1-416-78.64a57.51,57.51,0,0,1,2.41-6,68.9,68.9,0,0,1,3.28-6.21,67.62,67.62,0,0,1,4-6,58.17,58.17,0,0,1,4.52-5.4,36.59,36.59,0,0,1,4.87-4.35,24.26,24.26,0,0,1,5.07-2.91,13.12,13.12,0,0,1,5.1-1.07c11.07,2.08.24,17-7.63,17.91a6.42,6.42,0,0,0-3.72-1.17,6.49,6.49,0,0,0-6.49,6.49,6.5,6.5,0,0,0,6.49,6.49s2.69.53,8.6-2.75h0a27,27,0,0,0,3.83-1.94,31.2,31.2,0,0,0,4.75-3.59,34.77,34.77,0,0,0,4.09-4.44,28.09,28.09,0,0,0,3-4.94,18.25,18.25,0,0,0,1.63-5.09,14.13,14.13,0,0,0-.28-6.5,11.19,11.19,0,0,0-2.66-4.56,11.09,11.09,0,0,0-4.24-2.67,14.84,14.84,0,0,0-5-.87A24.83,24.83,0,0,0-392-117a35.14,35.14,0,0,0-7.41,3.38,49.07,49.07,0,0,0-6.93,5.07,62.47,62.47,0,0,0-6.28,6.32A74.11,74.11,0,0,0-418-95.1a73.64,73.64,0,0,0-4.38,7.44,60.69,60.69,0,0,0-3.18,7.31,38,38,0,0,0-1.76,6.73,25.21,25.21,0,0,0,.06,8.76,18.84,18.84,0,0,0,3,7.32,16.06,16.06,0,0,0,5.71,5,17.48,17.48,0,0,0,8.24,1.85,47.38,47.38,0,0,0,7.9-.61,45.1,45.1,0,0,0,6.71-1.65A39.16,39.16,0,0,0-390-55.37a53.75,53.75,0,0,0,4.93-2.89" transform="translate(471.82 589.26)"/><path class="cls-5" d="M-351.88-72.16a6.28,6.28,0,0,1-.18-1.16,6.19,6.19,0,0,1,.06-1.35l.06-.37c.11-.35.24-.71.39-1.09s.3-.72.44-1,.29-.64.43-.92.28-.51.4-.69c1.09-1.59,2.25-3.23,3.47-4.9s2.44-3.37,3.66-5.1,2.41-3.46,3.57-5.22,2.19-3.5,3.14-5.24a45.64,45.64,0,0,0,2.41-5.21,25,25,0,0,0,1.39-5.08,12.58,12.58,0,0,0,.17-2.19,5.79,5.79,0,0,0-.31-1.93,2.84,2.84,0,0,0-1-1.36,3,3,0,0,0-1.85-.52,7.29,7.29,0,0,0-3.56,1,16.93,16.93,0,0,0-3.63,2.77,35.16,35.16,0,0,0-3.59,4.14,58.24,58.24,0,0,0-3.39,5.12c-1.08,1.82-2.1,3.72-3,5.71s-1.8,4-2.56,5.92-1.42,3.87-1.95,5.72A43.42,43.42,0,0,0-358.51-80c-.06.39-.11.78-.16,1.17M-289-71c-.14,0-.28-.1-.41-.3a3,3,0,0,1-.34-.83,6.28,6.28,0,0,1-.18-1.16,6.19,6.19,0,0,1,.06-1.35l.06-.37c.11-.35.24-.71.39-1.09s.3-.72.44-1,.29-.64.43-.92.28-.51.4-.69c1.09-1.59,2.25-3.23,3.47-4.9s2.44-3.37,3.67-5.1,2.4-3.46,3.56-5.22,2.2-3.5,3.14-5.24a45.64,45.64,0,0,0,2.41-5.21,25,25,0,0,0,1.39-5.08,12.58,12.58,0,0,0,.17-2.19,5.54,5.54,0,0,0-.31-1.93,2.89,2.89,0,0,0-1-1.36,3,3,0,0,0-1.86-.52,7.25,7.25,0,0,0-3.55,1,16.73,16.73,0,0,0-3.64,2.77,35.12,35.12,0,0,0-3.58,4.14,56.14,56.14,0,0,0-3.4,5.12q-1.62,2.73-3,5.71t-2.56,5.92q-1.15,2.94-1.95,5.72A43.42,43.42,0,0,0-296.36-80a31.6,31.6,0,0,0-.4,5.88c0,.22,0,.42,0,.63-.45.28-.88.57-1.35.83-.74.42-1.46.79-2.16,1.12a19.76,19.76,0,0,1-1.95.78,5.32,5.32,0,0,1-1.51.29,1.08,1.08,0,0,1-.8-.25,1.26,1.26,0,0,1-.31-.72,4.44,4.44,0,0,1,0-1.09c.05-.41.11-.87.19-1.36a11,11,0,0,1,.39-1.43c.22-.68.48-1.47.8-2.37l1-2.92c.37-1,.72-2.06,1.05-3s.61-1.89.85-2.71a16.24,16.24,0,0,0,.47-2,1.18,1.18,0,0,0-.62-1.23,4.07,4.07,0,0,0-2.14-.47,5.81,5.81,0,0,0-2.27.43,2.16,2.16,0,0,0-1.28,1.08L-311.18-75a8.23,8.23,0,0,1-.95,1.9,7.46,7.46,0,0,1-1.22,1.41,5.41,5.41,0,0,1-1.33.87,3,3,0,0,1-1.28.31,1.06,1.06,0,0,1-.68-.21,1.34,1.34,0,0,1-.4-.56,2.63,2.63,0,0,1-.17-.79,4.76,4.76,0,0,1,0-.91s.09-.29.26-.83.39-1.23.67-2.09.61-1.86,1-3,.73-2.25,1.12-3.42l1.14-3.47c.37-1.16.71-2.2,1-3.14q.06-.45-.51-.75a4.93,4.93,0,0,0-2-.36,3.4,3.4,0,0,0-1.65.45,5.53,5.53,0,0,0-1.39,1.09A10,10,0,0,0-318.68-87a14.74,14.74,0,0,0-.9,1.62c-.26.53-.48,1-.65,1.48s-.29.81-.37,1.07Q-321.91-79-322.86-76l-1.08,1a34.41,34.41,0,0,1-3.47,2.63,24.62,24.62,0,0,1-3.5,2,7.42,7.42,0,0,1-3,.78,3.45,3.45,0,0,1-2.1-.57,3.45,3.45,0,0,1-1.11-1.43,5.1,5.1,0,0,1-.37-1.9,11.73,11.73,0,0,1,.14-2c.07-.43.17-.95.31-1.58a15.77,15.77,0,0,1,.56-2,19,19,0,0,1,.85-2.08,8.61,8.61,0,0,1,1.18-1.89,5.88,5.88,0,0,1,1.57-1.35,3.8,3.8,0,0,1,2-.52.47.47,0,0,1,.53.42,3.28,3.28,0,0,1,0,1.07c-.05.28-.11.6-.19,1s-.15.69-.2,1a3.32,3.32,0,0,0,.1,1.83c.2.45.72.67,1.58.67a3.15,3.15,0,0,0,1.6-.43,4.92,4.92,0,0,0,1.34-1.13,6.33,6.33,0,0,0,1-1.58,6.74,6.74,0,0,0,.53-1.78,5.2,5.2,0,0,0-.15-2.43,4.72,4.72,0,0,0-1.16-2A5.61,5.61,0,0,0-328-89.58a8.24,8.24,0,0,0-2.81-.46,9.39,9.39,0,0,0-3.47.65,12.56,12.56,0,0,0-3.05,1.75A15.35,15.35,0,0,0-340-85.07,21.43,21.43,0,0,0-342-82a22.86,22.86,0,0,0-1.49,3.28,18.42,18.42,0,0,0-.83,3.22,12.84,12.84,0,0,0-.15,1.62m-17,.44c.9,0,1.77,0,2.6,0a19.56,19.56,0,0,0,.66,4.21,8.85,8.85,0,0,0,1.68,3.38A3.23,3.23,0,0,0-354-64.55a9.14,9.14,0,0,0,2-.25,18.88,18.88,0,0,0,2.29-.68c.8-.28,1.59-.6,2.39-1s1.57-.73,2.32-1.1c.53-.27,1.08-.58,1.62-.88.11.19.22.38.34.56a7.51,7.51,0,0,0,2.8,2.42,9.33,9.33,0,0,0,4.28.9A10,10,0,0,0-333-65a17.35,17.35,0,0,0,2.89-1.14,24.56,24.56,0,0,0,2.75-1.6c.88-.61,1.72-1.23,2.49-1.86l.49-.42a8.28,8.28,0,0,0,0,2.42,4.13,4.13,0,0,0,.68,1.82,2.81,2.81,0,0,0,1.25,1,4.4,4.4,0,0,0,1.65.3,7,7,0,0,0,2.33-.44A13.53,13.53,0,0,0-316-66.14,21.67,21.67,0,0,0-313.5-68a27.64,27.64,0,0,0,2.45-2.3,15.18,15.18,0,0,0,.29,2.22,5.74,5.74,0,0,0,.63,1.71A3.08,3.08,0,0,0-309-65.21a3.39,3.39,0,0,0,1.72.4,10.89,10.89,0,0,0,2.28-.28,22.69,22.69,0,0,0,2.55-.75c.87-.31,1.75-.66,2.62-1.07s1.71-.83,2.5-1.28c.49-.27.94-.54,1.37-.81a8.84,8.84,0,0,0,1.62,3.19,3.24,3.24,0,0,0,2.55,1.26,9.06,9.06,0,0,0,2-.25,19.56,19.56,0,0,0,2.3-.68c.79-.28,1.58-.6,2.38-1s1.57-.73,2.32-1.1,1.43-.76,2.15-1.17a8.85,8.85,0,0,0,.5.84,7.32,7.32,0,0,0,2.83,2.43,9.58,9.58,0,0,0,4.35.9,15.44,15.44,0,0,0,3.3-.36,23.09,23.09,0,0,0,3.24-1,28.18,28.18,0,0,0,3.06-1.37c.9-.47,1.74-.94,2.54-1.42a7.61,7.61,0,0,0,0,1,3.45,3.45,0,0,0,.6,1.68,3.22,3.22,0,0,0,1.4,1.08,6.17,6.17,0,0,0,2.33.38,10,10,0,0,0,3.44-.56c5.86-2.1,10.73-10.48,10.73-10.48.64-1.26-3,2.37-5.07,3.67-.94.6-1.82,1.17-2.69,1.61a5.24,5.24,0,0,1-2.29.66.9.9,0,0,1-1-.7,5.08,5.08,0,0,1,0-1.9,16.58,16.58,0,0,1,.7-2.75c.35-1,.74-2.06,1.18-3.13s.91-2.14,1.39-3.21l1.35-3c.42-.93.78-1.77,1.08-2.5a8.17,8.17,0,0,0,.54-1.69,1.33,1.33,0,0,0-.24-1.1,2,2,0,0,0-1.49-.41,7.82,7.82,0,0,0-1.43.15,7.46,7.46,0,0,0-1.58.45,6.15,6.15,0,0,0-1.42.79,2.93,2.93,0,0,0-1,1.19c-.54,1.32-1.15,2.78-1.83,4.35s-1.33,3.16-2,4.74c-.37.93-.71,1.84-1,2.73-.5.37-1.05.75-1.65,1.15a38,38,0,0,1-3.58,2.08,27.65,27.65,0,0,1-3.8,1.6,11.44,11.44,0,0,1-3.56.63,4.07,4.07,0,0,1-.95-.1,2.19,2.19,0,0,1-.8-.38,2.61,2.61,0,0,1-.69-.74,6.88,6.88,0,0,1-.62-1.19,22.9,22.9,0,0,0,4.7-1.78A19.66,19.66,0,0,0-266.08-77a15,15,0,0,0,2.81-3.1,8.28,8.28,0,0,0,1.35-3.29,6.36,6.36,0,0,0-.11-2.74,4.9,4.9,0,0,0-1.19-2.08,5.56,5.56,0,0,0-2.07-1.35,7.81,7.81,0,0,0-2.77-.47,9.42,9.42,0,0,0-3.53.65,12.49,12.49,0,0,0-3.07,1.75,15.54,15.54,0,0,0-2.58,2.55,20.83,20.83,0,0,0-2,3,20.21,20.21,0,0,0-1.43,3.25,18.21,18.21,0,0,0-.8,3.15m7.14-2.82a14.49,14.49,0,0,1,.5-1.7,11.66,11.66,0,0,1,.8-1.73,7.07,7.07,0,0,1,1.14-1.54,5.51,5.51,0,0,1,1.57-1.11,4.89,4.89,0,0,1,2.08-.42,1.07,1.07,0,0,1,1,.77,3.62,3.62,0,0,1,.14,2,3.47,3.47,0,0,1-1,1.76A11.4,11.4,0,0,1-270-78.78a12.48,12.48,0,0,1-2.36,1.26,6.1,6.1,0,0,1-2.23.49C-274.56-77.42-274.47-77.89-274.35-78.44ZM-287.23-91c.54-1.79,1.17-3.54,1.87-5.24s1.46-3.3,2.26-4.81a37.09,37.09,0,0,1,2.37-4,17.11,17.11,0,0,1,2.26-2.7,3,3,0,0,1,1.87-1c.14,0,.2.18.17.54s-.08.8-.16,1.31a28.56,28.56,0,0,1-2,5.22q-1.35,2.8-3,5.62t-3.48,5.47c-1.2,1.77-2.33,3.36-3.37,4.78A40.23,40.23,0,0,1-287.23-91Zm-62.15,0c.54-1.79,1.17-3.54,1.87-5.24s1.46-3.3,2.25-4.81a38.8,38.8,0,0,1,2.38-4,16.59,16.59,0,0,1,2.26-2.7,3,3,0,0,1,1.87-1c.14,0,.2.18.17.54s-.09.8-.17,1.31a28.47,28.47,0,0,1-2,5.22q-1.35,2.8-3,5.62t-3.47,5.47c-1.2,1.77-2.33,3.36-3.37,4.78A40.23,40.23,0,0,1-349.38-91Z" transform="translate(471.82 589.26)"/><path class="cls-4" d="M-241-99.92a2.48,2.48,0,0,0-.82-1.15,3.56,3.56,0,0,0-1.37-.65,6.6,6.6,0,0,0-1.77-.22,6.72,6.72,0,0,0-2.63.47,6,6,0,0,0-1.82,1.14,5,5,0,0,0-1.12,1.45,4.35,4.35,0,0,0-.49,1.38,3.37,3.37,0,0,0,.68,2.93,4.32,4.32,0,0,0,3.38,1.1,6.68,6.68,0,0,0,2.46-.41,6.16,6.16,0,0,0,1.82-1.07,5,5,0,0,0,1.2-1.52,5.91,5.91,0,0,0,.58-1.75A3.5,3.5,0,0,0-241-99.92Z" transform="translate(471.82 589.26)"/><text class="cls-6" transform="translate(72.45 109.09)">Calculei</text><path class="cls-3" d="M-392-216.47a46.53,46.53,0,0,1,3-16.76,41.12,41.12,0,0,1,7.84-13.19A36.74,36.74,0,0,1-370-254.84a29.11,29.11,0,0,1,12.93-3.08q6.65,0,10.61,3.52t4,10.07a15.79,15.79,0,0,1-5,11.55,24.41,24.41,0,0,1-13,6.51c-.95.12-1.58.18-1.87.18-2.2,0-3.3-.87-3.3-2.59a2.33,2.33,0,0,1,.93-1.78,12.49,12.49,0,0,1,4.24-1.7,18.46,18.46,0,0,0,8.16-4.45,9.55,9.55,0,0,0,3.07-7c0-2.65-.76-4.56-2.27-5.75a10,10,0,0,0-6.29-1.78q-9.72,0-17.69,10a36.76,36.76,0,0,0-8,23.58q0,10.17,4.1,15.65t11.86,5.48a25.3,25.3,0,0,0,14-4.06,34.11,34.11,0,0,0,10.38-10.47,1.44,1.44,0,0,1,1.38-.62,3.46,3.46,0,0,1,2.1.8c.71.53,1.07,1,1.07,1.42a2.24,2.24,0,0,1-.18,1,30.94,30.94,0,0,1-12.39,13.59,34.42,34.42,0,0,1-18.14,5.13,21.5,21.5,0,0,1-16.18-6.78Q-392-203.19-392-216.47Z" transform="translate(471.82 589.26)"/><path class="cls-3" d="M-363.5-209.53a12.94,12.94,0,0,1,3.61-9q3.61-3.94,7.7-3.95c1.53,0,2.3.4,2.3,1.18v.34h1.28c1.05,0,1.57.48,1.57,1.45v.34l-1.57,9.63a3.2,3.2,0,0,0-.05.62c0,.89.32,1.34,1,1.34q2.13,0,5-3.75a1,1,0,0,1,.79-.51c.37,0,.69.29.95.87a3.79,3.79,0,0,1,.39,1.51,3.42,3.42,0,0,1-.11,1,14.39,14.39,0,0,1-3.36,3.28,6.85,6.85,0,0,1-3.95,1.48,4,4,0,0,1-2.91-1,4.31,4.31,0,0,1-1.26-2.66v.12a7.52,7.52,0,0,1-2.52,2.8,7.22,7.22,0,0,1-3.87,1,4.4,4.4,0,0,1-3.61-1.7A6.84,6.84,0,0,1-363.5-209.53Zm6.33,2.18a3.79,3.79,0,0,0,2.88-1.68,9.38,9.38,0,0,0,1.88-3.69l1.51-6.27a7.46,7.46,0,0,0-5.82,3.08,9.29,9.29,0,0,0-2.58,5.82C-359.3-208.26-358.59-207.35-357.17-207.35Z" transform="translate(471.82 589.26)"/><path class="cls-7" d="M-383.1-79.66A18.17,18.17,0,0,1-378-92.26q5.07-5.53,10.8-5.54c2.15,0,3.22.55,3.22,1.65v.47h1.81c1.46,0,2.2.68,2.2,2v.48l-2.2,13.5a3.89,3.89,0,0,0-.08.87c0,1.25.44,1.88,1.34,1.88q3,0,7.06-5.26a1.51,1.51,0,0,1,1.1-.71c.53,0,1,.41,1.34,1.22a5.41,5.41,0,0,1,.55,2.12,4.48,4.48,0,0,1-.16,1.38,20.21,20.21,0,0,1-4.71,4.59,9.6,9.6,0,0,1-5.54,2.08,5.73,5.73,0,0,1-4.08-1.37,6.05,6.05,0,0,1-1.77-3.73v.15a10.29,10.29,0,0,1-3.53,3.93,10.11,10.11,0,0,1-5.42,1.41,6.16,6.16,0,0,1-5.07-2.39A9.56,9.56,0,0,1-383.1-79.66Zm8.87,3.07c1.42,0,2.76-.79,4.05-2.36a13.2,13.2,0,0,0,2.63-5.18l2.12-8.8q-4.56,0-8.17,4.32t-3.61,8.17C-377.21-77.88-376.22-76.59-374.23-76.59Z" transform="translate(471.82 589.26)"/><path class="cls-3" d="M-54.53-183.65a18.16,18.16,0,0,1,5.07-12.61q5.06-5.53,10.8-5.53c2.14,0,3.22.54,3.22,1.64v.48h1.8c1.47,0,2.2.68,2.2,2v.47l-2.2,13.51a4,4,0,0,0-.07.86c0,1.26.44,1.89,1.33,1.89q3,0,7.07-5.27a1.46,1.46,0,0,1,1.1-.7c.52,0,1,.4,1.33,1.22a5.2,5.2,0,0,1,.55,2.12,4.75,4.75,0,0,1-.15,1.37,20.07,20.07,0,0,1-4.72,4.59,9.59,9.59,0,0,1-5.53,2.09,5.7,5.7,0,0,1-4.09-1.38,6,6,0,0,1-1.76-3.73v.16a10.36,10.36,0,0,1-3.54,3.92,10,10,0,0,1-5.42,1.42,6.17,6.17,0,0,1-5.06-2.4A9.48,9.48,0,0,1-54.53-183.65Zm8.88,3.06c1.41,0,2.76-.78,4-2.36A13.14,13.14,0,0,0-39-188.13l2.12-8.8c-3,0-5.76,1.45-8.16,4.32s-3.62,5.61-3.62,8.17S-47.64-180.59-45.65-180.59Z" transform="translate(471.82 589.26)"/><path class="cls-1" d="M175.61,154.92c-.78.49-1.51,1-2.24,1.33a4.25,4.25,0,0,1-1.9.55.75.75,0,0,1-.84-.58,4.42,4.42,0,0,1,0-1.58,15.42,15.42,0,0,1,.59-2.28c.29-.85.62-1.71,1-2.6s.76-1.78,1.15-2.67l1.13-2.49c.34-.78.64-1.47.89-2.08a6.9,6.9,0,0,0,.45-1.4,1.08,1.08,0,0,0-.19-.91,1.65,1.65,0,0,0-1.25-.35,6,6,0,0,0-1.18.13,6.73,6.73,0,0,0-1.31.37,5.11,5.11,0,0,0-1.19.66,2.47,2.47,0,0,0-.79,1c-.45,1.11-1,2.31-1.51,3.62s-1.11,2.62-1.64,3.94c-.31.77-.59,1.52-.86,2.27-.42.31-.88.62-1.38.95a32,32,0,0,1-3,1.73,22.41,22.41,0,0,1-3.15,1.32,9.27,9.27,0,0,1-3,.53,3.84,3.84,0,0,1-.79-.08A2,2,0,0,1,154,156a2.46,2.46,0,0,1-.57-.62,6.43,6.43,0,0,1-.52-1,19.12,19.12,0,0,0,3.91-1.48,16.78,16.78,0,0,0,3.26-2.16,13,13,0,0,0,2.33-2.58,7,7,0,0,0,1.12-2.74,5.17,5.17,0,0,0-.09-2.27,4.07,4.07,0,0,0-1-1.73,4.71,4.71,0,0,0-1.72-1.12,6.41,6.41,0,0,0-2.3-.39,7.9,7.9,0,0,0-2.93.54,10.06,10.06,0,0,0-2.55,1.45,12.62,12.62,0,0,0-2.14,2.12,16.89,16.89,0,0,0-1.69,2.53,17.88,17.88,0,0,0-1.19,2.7,16.11,16.11,0,0,0-.66,2.61c-.06.36-.09.71-.12,1.06l-1,.64c-.46.26-.92.53-1.4.78s-.94.49-1.39.69a11.15,11.15,0,0,1-1.26.47,3.54,3.54,0,0,1-1,.18c-.13,0-.24-.09-.35-.26a2.32,2.32,0,0,1-.28-.68,6.39,6.39,0,0,1-.15-1,4.64,4.64,0,0,1,.05-1.11l0-.31c.09-.3.2-.6.32-.91s.25-.6.37-.87.24-.52.36-.76a4.36,4.36,0,0,1,.33-.57c.9-1.33,1.87-2.68,2.88-4.07s2-2.8,3.05-4.24,2-2.88,2.95-4.33,1.83-2.91,2.61-4.36a37.84,37.84,0,0,0,2-4.32,20.38,20.38,0,0,0,1.15-4.23,11.36,11.36,0,0,0,.15-1.82,5,5,0,0,0-.26-1.6,2.36,2.36,0,0,0-.82-1.13,2.48,2.48,0,0,0-1.55-.43,6.12,6.12,0,0,0-3,.84,13.83,13.83,0,0,0-3,2.3,29.83,29.83,0,0,0-3,3.44,44.75,44.75,0,0,0-2.82,4.25q-1.35,2.26-2.53,4.74t-2.13,4.92c-.64,1.63-1.17,3.22-1.61,4.75a35,35,0,0,0-1,4.27,26,26,0,0,0-.33,4.89l0,.52c-.37.24-.73.47-1.12.69-.61.35-1.21.66-1.79.93a13.45,13.45,0,0,1-1.63.65,4.28,4.28,0,0,1-1.25.24.9.9,0,0,1-.66-.21,1,1,0,0,1-.26-.59,4,4,0,0,1,0-.91c0-.34.09-.72.16-1.13a8.13,8.13,0,0,1,.32-1.18c.18-.57.4-1.23.67-2s.54-1.56.85-2.43.59-1.71.86-2.52.51-1.57.71-2.25a13.76,13.76,0,0,0,.39-1.62,1,1,0,0,0-.52-1,3.32,3.32,0,0,0-1.77-.39,4.86,4.86,0,0,0-1.89.36,1.74,1.74,0,0,0-1.06.89l-4,11.21a7.29,7.29,0,0,1-.79,1.58,6.59,6.59,0,0,1-1,1.17,4.52,4.52,0,0,1-1.1.72,2.57,2.57,0,0,1-1.06.26.84.84,0,0,1-.56-.18,1.13,1.13,0,0,1-.34-.46,2.14,2.14,0,0,1-.14-.65,3.28,3.28,0,0,1,.05-.76s.07-.25.21-.69.32-1,.56-1.74.5-1.54.8-2.46.6-1.86.92-2.84.64-1.93,1-2.88.59-1.83.85-2.61q.06-.37-.42-.63a4.28,4.28,0,0,0-1.68-.29,2.91,2.91,0,0,0-1.36.37,4.81,4.81,0,0,0-1.16.91,7.39,7.39,0,0,0-.94,1.23,12.22,12.22,0,0,0-.75,1.35c-.21.44-.39.85-.54,1.22s-.24.67-.31.89c-.72,2.12-1.34,4-1.87,5.67l-.9.8a31.12,31.12,0,0,1-2.88,2.18,20.59,20.59,0,0,1-2.91,1.64,6,6,0,0,1-2.51.65,2.81,2.81,0,0,1-1.74-.47,2.75,2.75,0,0,1-.92-1.19,4.24,4.24,0,0,1-.31-1.58,9.87,9.87,0,0,1,.11-1.65c.06-.36.14-.79.26-1.31a15.37,15.37,0,0,1,.46-1.65c.2-.57.44-1.15.71-1.73a7.2,7.2,0,0,1,1-1.57,4.93,4.93,0,0,1,1.3-1.12,3.16,3.16,0,0,1,1.66-.43.4.4,0,0,1,.44.35,2.68,2.68,0,0,1,0,.88,8.06,8.06,0,0,1-.16.8c-.07.29-.12.57-.16.84a2.63,2.63,0,0,0,.09,1.52c.16.37.59.55,1.3.55a2.7,2.7,0,0,0,1.33-.35,4.16,4.16,0,0,0,1.12-.94,6,6,0,0,0,.81-1.31,6.26,6.26,0,0,0,.44-1.48,4.39,4.39,0,0,0-.13-2,4,4,0,0,0-1-1.62,4.62,4.62,0,0,0-1.71-1.07,6.68,6.68,0,0,0-2.34-.39,7.76,7.76,0,0,0-2.88.54,10.34,10.34,0,0,0-2.53,1.46A12.79,12.79,0,0,0,98.69,144,18.68,18.68,0,0,0,97,146.54a17.42,17.42,0,0,0-1.24,2.72,14.62,14.62,0,0,0-.69,2.67,10.44,10.44,0,0,0-.13,1.35l-.42.26c-.46.26-.92.53-1.4.78s-.94.49-1.39.69a11.15,11.15,0,0,1-1.26.47,3.54,3.54,0,0,1-1,.18c-.13,0-.24-.09-.35-.26a2.32,2.32,0,0,1-.28-.68c0-.06,0-.13,0-.2v0a3.64,3.64,0,0,0-.11-.82,4.5,4.5,0,0,1,0-1l0-.31c.09-.3.2-.6.32-.91s.25-.6.37-.87.24-.52.36-.76a4.36,4.36,0,0,1,.33-.57c.9-1.33,1.87-2.68,2.88-4.07s2-2.8,3-4.24,2-2.88,3-4.33,1.83-2.91,2.61-4.36a37.84,37.84,0,0,0,2-4.32,20.38,20.38,0,0,0,1.15-4.23,11.36,11.36,0,0,0,.15-1.82,5,5,0,0,0-.26-1.6,2.36,2.36,0,0,0-.82-1.13,2.5,2.5,0,0,0-1.55-.43,6.12,6.12,0,0,0-3,.84,13.83,13.83,0,0,0-3,2.3,29.83,29.83,0,0,0-3,3.44,44.75,44.75,0,0,0-2.82,4.25q-1.35,2.26-2.53,4.74t-2.13,4.92c-.64,1.63-1.17,3.22-1.62,4.75a36.82,36.82,0,0,0-1,4.27c-.05.33-.09.65-.13,1-.13,1-.16,4.52-.16,4.52a17.33,17.33,0,0,0,.19,1.84,4.75,4.75,0,0,1-2.78,1.14q-1.11,0-1.11-1.56a2.81,2.81,0,0,1,.07-.72l1.82-11.22v-.39c0-1.13-.61-1.7-1.82-1.7h-1.5v-.39c0-.91-.9-1.37-2.68-1.37q-4.75,0-9,4.6A15.12,15.12,0,0,0,62,154.39a7.88,7.88,0,0,0,1.6,5.12,5.22,5.22,0,0,0,1.14,1.07c-6.63,2.65-17.19,5.79-24.16,3a8,8,0,0,1-3.39-2.42,9.16,9.16,0,0,1-1.73-4.06,17,17,0,0,1,.07-5.72,31.85,31.85,0,0,1,1.27-5,56.87,56.87,0,0,1,2.25-5.63q1.35-2.9,3.07-5.81a66.57,66.57,0,0,1,3.73-5.61,58.23,58.23,0,0,1,4.23-5.05,34.8,34.8,0,0,1,4.57-4.08,23.35,23.35,0,0,1,4.74-2.72,12.36,12.36,0,0,1,4.77-1c10.37,2,.23,15.89-7.13,16.78a6.07,6.07,0,1,0-3.49,11.05s2.52.5,8.05-2.57h0a25.67,25.67,0,0,0,3.58-1.82,29.77,29.77,0,0,0,4.46-3.36,31.77,31.77,0,0,0,3.82-4.16,26.66,26.66,0,0,0,2.85-4.62A17.23,17.23,0,0,0,77.84,123a13.2,13.2,0,0,0-.27-6.09,10.56,10.56,0,0,0-2.49-4.27,10.25,10.25,0,0,0-4-2.5,14,14,0,0,0-4.67-.81,23.49,23.49,0,0,0-7.2,1.14,33.92,33.92,0,0,0-6.93,3.17,45.88,45.88,0,0,0-6.5,4.75A59.56,59.56,0,0,0,40,124.31,68.9,68.9,0,0,0,34.87,131a70.16,70.16,0,0,0-4.1,7,57.26,57.26,0,0,0-3,6.86,35.84,35.84,0,0,0-1.65,6.29,24,24,0,0,0,.06,8.2,17.55,17.55,0,0,0,2.8,6.85,15,15,0,0,0,5.35,4.69,16.24,16.24,0,0,0,7.71,1.73,36.54,36.54,0,0,0,7.39-.57c12.76-2.65,19.71-7.69,23.41-12a8.75,8.75,0,0,0,2.4-2.86v-.13A5,5,0,0,0,76.72,160a4.73,4.73,0,0,0,3.4,1.15,7.83,7.83,0,0,0,4.47-1.65,5.48,5.48,0,0,0,.34.46,2.71,2.71,0,0,0,2.12,1,7.57,7.57,0,0,0,1.69-.21,18.27,18.27,0,0,0,1.91-.56q1-.36,2-.81c.66-.3,1.3-.6,1.93-.91l1.34-.73c.09.15.18.31.29.46a6.18,6.18,0,0,0,2.33,2,7.65,7.65,0,0,0,3.54.75,8.64,8.64,0,0,0,2.44-.36,16.17,16.17,0,0,0,2.4-1,19.3,19.3,0,0,0,2.27-1.34c.74-.5,1.43-1,2.08-1.54l.4-.35a7.2,7.2,0,0,0,0,2,3.5,3.5,0,0,0,.57,1.52,2.28,2.28,0,0,0,1,.81,3.75,3.75,0,0,0,1.37.24,5.84,5.84,0,0,0,1.93-.36,11.11,11.11,0,0,0,2.06-1,18.32,18.32,0,0,0,2.1-1.51,25.74,25.74,0,0,0,2-1.91,13.43,13.43,0,0,0,.25,1.84,4.56,4.56,0,0,0,.52,1.42,2.54,2.54,0,0,0,.91.93,2.76,2.76,0,0,0,1.42.33,9,9,0,0,0,1.9-.23,18.58,18.58,0,0,0,2.12-.62c.72-.26,1.45-.55,2.18-.89s1.42-.69,2.07-1.06c.41-.23.78-.45,1.14-.68a7.32,7.32,0,0,0,1.34,2.65,2.71,2.71,0,0,0,2.12,1,7.57,7.57,0,0,0,1.69-.21,18.27,18.27,0,0,0,1.91-.56q1-.36,2-.81c.66-.3,1.3-.6,1.92-.91s1.19-.64,1.79-1a6.27,6.27,0,0,0,2.77,2.71,7.9,7.9,0,0,0,3.61.75,12.84,12.84,0,0,0,2.74-.3,18.9,18.9,0,0,0,2.69-.79,22.48,22.48,0,0,0,2.55-1.14c.74-.39,1.44-.78,2.1-1.18a7,7,0,0,0,0,.8,2.86,2.86,0,0,0,.49,1.4,2.64,2.64,0,0,0,1.16.89,5.1,5.1,0,0,0,1.94.32,8.4,8.4,0,0,0,2.86-.46c4.86-1.75,8.91-8.72,8.91-8.72C180.35,150.82,177.32,153.83,175.61,154.92Zm-22.4-5.42a12.82,12.82,0,0,1,.41-1.41,10.89,10.89,0,0,1,.66-1.44,5.87,5.87,0,0,1,1-1.28,4.5,4.5,0,0,1,1.3-.92,4.06,4.06,0,0,1,1.72-.35.87.87,0,0,1,.82.64,2.91,2.91,0,0,1-.68,3.09,9.68,9.68,0,0,1-1.62,1.39,10,10,0,0,1-2,1,4.89,4.89,0,0,1-1.84.41C153,150.35,153.1,150,153.21,149.5ZM142.51,139a44.07,44.07,0,0,1,1.55-4.36c.59-1.41,1.21-2.74,1.87-4a30.69,30.69,0,0,1,2-3.29,13.85,13.85,0,0,1,1.87-2.24,2.55,2.55,0,0,1,1.55-.83c.13,0,.17.16.15.46s-.07.66-.14,1.09a24.6,24.6,0,0,1-1.64,4.33c-.75,1.55-1.58,3.11-2.51,4.67s-1.89,3.07-2.89,4.54-1.93,2.8-2.8,4A32.3,32.3,0,0,1,142.51,139Zm-51.63,0c.45-1.5,1-2.95,1.55-4.36s1.21-2.74,1.87-4a30.69,30.69,0,0,1,2-3.29,13.85,13.85,0,0,1,1.87-2.24,2.54,2.54,0,0,1,1.56-.83c.12,0,.16.16.14.46s-.07.66-.14,1.09a24.6,24.6,0,0,1-1.64,4.33c-.75,1.55-1.58,3.11-2.51,4.67s-1.89,3.07-2.89,4.54-1.93,2.8-2.8,4A32.3,32.3,0,0,1,90.88,139Zm-21,7.91q3-3.58,6.78-3.58l-1.76,7.3A11,11,0,0,1,72.75,155a4.47,4.47,0,0,1-3.37,2c-1.65,0-2.47-1.07-2.47-3.2S67.91,149.35,69.91,147Z" transform="translate(471.82 589.26)"/><path class="cls-1" d="M180.87,131.66a2,2,0,0,0-.67-1,3.18,3.18,0,0,0-1.14-.54,5.83,5.83,0,0,0-1.48-.18,5.55,5.55,0,0,0-2.18.39,4.81,4.81,0,0,0-1.51.95,4.32,4.32,0,0,0-.93,1.2,3.73,3.73,0,0,0-.41,1.15,2.82,2.82,0,0,0,.57,2.43,3.58,3.58,0,0,0,2.8.92,5.83,5.83,0,0,0,2.05-.34,5.13,5.13,0,0,0,1.51-.9,4.28,4.28,0,0,0,1-1.25,4.91,4.91,0,0,0,.48-1.46A2.93,2.93,0,0,0,180.87,131.66Z" transform="translate(471.82 589.26)"/><path class="cls-8" d="M175.61,251.22c-.78.49-1.51,1-2.24,1.33a4.25,4.25,0,0,1-1.9.55.75.75,0,0,1-.84-.58,4.42,4.42,0,0,1,0-1.58,14.82,14.82,0,0,1,.59-2.28c.29-.85.62-1.72,1-2.61s.76-1.78,1.15-2.67l1.13-2.49c.34-.77.64-1.46.89-2.07a6.9,6.9,0,0,0,.45-1.4,1.11,1.11,0,0,0-.19-.92,1.65,1.65,0,0,0-1.25-.34,7.05,7.05,0,0,0-2.49.5,5.11,5.11,0,0,0-1.19.66,2.47,2.47,0,0,0-.79,1c-.45,1.1-1,2.31-1.51,3.62s-1.11,2.62-1.64,3.93c-.31.78-.59,1.53-.86,2.27q-.63.47-1.38,1a32,32,0,0,1-3,1.73,22.41,22.41,0,0,1-3.15,1.32,9.56,9.56,0,0,1-3,.53,3.24,3.24,0,0,1-.79-.09,1.79,1.79,0,0,1-.67-.31,2.25,2.25,0,0,1-.57-.61,6.13,6.13,0,0,1-.52-1,18,18,0,0,0,3.91-1.48,16.78,16.78,0,0,0,3.26-2.16,13,13,0,0,0,2.33-2.58,6.89,6.89,0,0,0,1.12-2.73,5.22,5.22,0,0,0-.09-2.28,4.2,4.2,0,0,0-1-1.73,4.69,4.69,0,0,0-1.72-1.11,6.2,6.2,0,0,0-2.3-.4,7.9,7.9,0,0,0-2.93.54,10.1,10.1,0,0,0-2.55,1.46,12.26,12.26,0,0,0-2.14,2.12,17.33,17.33,0,0,0-1.69,2.52,17.88,17.88,0,0,0-1.19,2.7,16,16,0,0,0-.66,2.62c-.06.36-.09.71-.12,1.06l-1,.64-1.4.78c-.48.26-.94.48-1.39.68a11.33,11.33,0,0,1-1.26.48,3.48,3.48,0,0,1-1,.17c-.13,0-.24-.08-.35-.25a2.58,2.58,0,0,1-.28-.68,6.39,6.39,0,0,1-.15-1,4.72,4.72,0,0,1,.05-1.12l0-.31c.09-.29.2-.59.32-.9s.25-.6.37-.87.24-.53.36-.76a5.42,5.42,0,0,1,.33-.58c.9-1.32,1.87-2.68,2.88-4.07s2-2.8,3.05-4.23,2-2.88,2.95-4.34,1.83-2.9,2.61-4.35a37.19,37.19,0,0,0,2-4.33,20.3,20.3,0,0,0,1.15-4.22,11.45,11.45,0,0,0,.15-1.82,4.92,4.92,0,0,0-.26-1.6,2.44,2.44,0,0,0-.82-1.14,2.55,2.55,0,0,0-1.55-.43,6.12,6.12,0,0,0-3,.84,14.22,14.22,0,0,0-3,2.31,28.23,28.23,0,0,0-3,3.44,44.57,44.57,0,0,0-2.82,4.24q-1.35,2.28-2.53,4.75t-2.13,4.92c-.64,1.63-1.17,3.21-1.61,4.75a35,35,0,0,0-1,4.27,25.83,25.83,0,0,0-.33,4.88l0,.53c-.37.23-.73.47-1.12.69-.61.34-1.21.65-1.79.92a12,12,0,0,1-1.63.65,4,4,0,0,1-1.25.25.9.9,0,0,1-.66-.21,1,1,0,0,1-.26-.6,3.9,3.9,0,0,1,0-.9c0-.35.09-.73.16-1.14a8.88,8.88,0,0,1,.32-1.18c.18-.56.4-1.22.67-2s.54-1.56.85-2.43.59-1.71.86-2.52.51-1.57.71-2.25a13.38,13.38,0,0,0,.39-1.63,1,1,0,0,0-.52-1,3.22,3.22,0,0,0-1.77-.4,4.69,4.69,0,0,0-1.89.37,1.74,1.74,0,0,0-1.06.89l-4,11.21a7.21,7.21,0,0,1-.79,1.57,6,6,0,0,1-1,1.17,4.29,4.29,0,0,1-1.1.73,2.55,2.55,0,0,1-1.06.25.89.89,0,0,1-.56-.17,1.17,1.17,0,0,1-.34-.47,2.08,2.08,0,0,1-.14-.65,3.35,3.35,0,0,1,.05-.76s.07-.24.21-.68.32-1,.56-1.74.5-1.54.8-2.46.6-1.87.92-2.84.64-1.93,1-2.89.59-1.82.85-2.6q.06-.37-.42-.63a4.24,4.24,0,0,0-1.68-.3,2.92,2.92,0,0,0-1.36.38,4.53,4.53,0,0,0-1.16.9,7.92,7.92,0,0,0-.94,1.24,12.11,12.11,0,0,0-.75,1.34q-.31.66-.54,1.23c-.14.37-.24.67-.31.89-.72,2.11-1.34,4-1.87,5.67-.3.26-.58.52-.9.79a29.56,29.56,0,0,1-2.88,2.19,20.59,20.59,0,0,1-2.91,1.64,6.18,6.18,0,0,1-2.51.65,2.88,2.88,0,0,1-1.74-.47,2.81,2.81,0,0,1-.92-1.19,4.28,4.28,0,0,1-.31-1.58,9.92,9.92,0,0,1,.11-1.66c.06-.35.14-.79.26-1.31a15.22,15.22,0,0,1,.46-1.64,18,18,0,0,1,.71-1.73,7,7,0,0,1,1-1.57,4.75,4.75,0,0,1,1.3-1.12,3.16,3.16,0,0,1,1.66-.43.39.39,0,0,1,.44.35,2.68,2.68,0,0,1,0,.88,7.38,7.38,0,0,1-.16.79c-.07.3-.12.58-.16.84a2.62,2.62,0,0,0,.09,1.52c.16.37.59.56,1.3.56A2.6,2.6,0,0,0,109,245a3.94,3.94,0,0,0,1.12-.93,5.84,5.84,0,0,0,.81-1.32,6,6,0,0,0,.44-1.47,4.38,4.38,0,0,0-.13-2,3.83,3.83,0,0,0-1-1.62,4.49,4.49,0,0,0-1.71-1.07,6.68,6.68,0,0,0-2.34-.39,7.76,7.76,0,0,0-2.88.54,10.34,10.34,0,0,0-2.53,1.46,13.11,13.11,0,0,0-2.16,2.12A18.68,18.68,0,0,0,97,242.83a17.52,17.52,0,0,0-1.24,2.73,14.21,14.21,0,0,0-.69,2.67,10.29,10.29,0,0,0-.13,1.34l-.42.27-1.4.78c-.48.26-.94.48-1.39.68a11.33,11.33,0,0,1-1.26.48,3.48,3.48,0,0,1-1,.17c-.13,0-.24-.08-.35-.25a2.58,2.58,0,0,1-.28-.68c0-.07,0-.14,0-.2v0a3.56,3.56,0,0,0-.11-.81,4.59,4.59,0,0,1,0-1l0-.31c.09-.29.2-.59.32-.9s.25-.6.37-.87.24-.53.36-.76a5.42,5.42,0,0,1,.33-.58c.9-1.32,1.87-2.68,2.88-4.07s2-2.8,3-4.23,2-2.88,3-4.34,1.83-2.9,2.61-4.35a37.19,37.19,0,0,0,2-4.33,20.3,20.3,0,0,0,1.15-4.22,11.45,11.45,0,0,0,.15-1.82,4.92,4.92,0,0,0-.26-1.6,2.44,2.44,0,0,0-.82-1.14,2.57,2.57,0,0,0-1.55-.43,6.12,6.12,0,0,0-3,.84,14.22,14.22,0,0,0-3,2.31,28.23,28.23,0,0,0-3,3.44,44.57,44.57,0,0,0-2.82,4.24q-1.35,2.28-2.53,4.75t-2.13,4.92c-.64,1.63-1.17,3.21-1.62,4.75a36.82,36.82,0,0,0-1,4.27c-.05.33-.09.65-.13,1C83,246.44,83,250,83,250a17.06,17.06,0,0,0,.19,1.84A4.77,4.77,0,0,1,80.41,253q-1.11,0-1.11-1.56a2.71,2.71,0,0,1,.07-.72l1.82-11.22v-.4c0-1.13-.61-1.69-1.82-1.69h-1.5V237c0-.92-.9-1.37-2.68-1.37q-4.75,0-9,4.6A15.09,15.09,0,0,0,62,250.69a7.92,7.92,0,0,0,1.6,5.12,5.22,5.22,0,0,0,1.14,1.07c-6.63,2.64-17.19,5.78-24.16,3a8,8,0,0,1-3.39-2.42,9.2,9.2,0,0,1-1.73-4.07,17,17,0,0,1,.07-5.72,32.12,32.12,0,0,1,1.27-5,56.73,56.73,0,0,1,2.25-5.62q1.35-2.9,3.07-5.81a63.48,63.48,0,0,1,3.73-5.61,56.77,56.77,0,0,1,4.23-5,34.8,34.8,0,0,1,4.57-4.08,22.94,22.94,0,0,1,4.74-2.73,12.34,12.34,0,0,1,4.77-1c10.37,1.95.23,15.89-7.13,16.77a6.08,6.08,0,1,0-3.49,11.06s2.52.5,8.05-2.57h0a24.55,24.55,0,0,0,3.58-1.81,29.19,29.19,0,0,0,4.46-3.37,31.69,31.69,0,0,0,3.82-4.15,26.66,26.66,0,0,0,2.85-4.62,17.4,17.4,0,0,0,1.53-4.77,13.16,13.16,0,0,0-.27-6.08A10.5,10.5,0,0,0,75.08,209a10.25,10.25,0,0,0-4-2.5,13.76,13.76,0,0,0-4.67-.82,23.51,23.51,0,0,0-7.2,1.15A32.88,32.88,0,0,0,52.32,210a45.11,45.11,0,0,0-6.5,4.75A57.48,57.48,0,0,0,40,220.61a66.53,66.53,0,0,0-5.08,6.66,67.94,67.94,0,0,0-4.1,7,57.84,57.84,0,0,0-3,6.85,36.07,36.07,0,0,0-1.65,6.29,24,24,0,0,0,.06,8.21,17.61,17.61,0,0,0,2.8,6.85,14.85,14.85,0,0,0,5.35,4.68,16.24,16.24,0,0,0,7.71,1.74,37.28,37.28,0,0,0,7.39-.57c12.76-2.65,19.71-7.7,23.41-12.06a8.65,8.65,0,0,0,2.4-2.86v-.13a5,5,0,0,0,1.46,3.1,4.77,4.77,0,0,0,3.4,1.14,7.89,7.89,0,0,0,4.47-1.64,5.48,5.48,0,0,0,.34.46,2.71,2.71,0,0,0,2.12,1,7.57,7.57,0,0,0,1.69-.21,16.25,16.25,0,0,0,1.91-.57c.66-.23,1.32-.5,2-.8s1.3-.61,1.93-.92c.44-.22.89-.48,1.34-.73a4.57,4.57,0,0,0,.29.47,6.18,6.18,0,0,0,2.33,2,7.65,7.65,0,0,0,3.54.75,8.31,8.31,0,0,0,2.44-.37,15.15,15.15,0,0,0,2.4-1,19.22,19.22,0,0,0,2.27-1.33c.74-.5,1.43-1,2.08-1.54l.4-.35a7.2,7.2,0,0,0,0,2,3.41,3.41,0,0,0,.57,1.51,2.3,2.3,0,0,0,1,.82,3.75,3.75,0,0,0,1.37.24,5.84,5.84,0,0,0,1.93-.36,11.18,11.18,0,0,0,2.06-1,17.18,17.18,0,0,0,2.1-1.51,22.48,22.48,0,0,0,2-1.91,13.59,13.59,0,0,0,.25,1.85,4.66,4.66,0,0,0,.52,1.42,2.51,2.51,0,0,0,.91.92,2.67,2.67,0,0,0,1.42.34,8.44,8.44,0,0,0,1.9-.24,18.48,18.48,0,0,0,2.12-.61c.72-.26,1.45-.56,2.18-.9s1.42-.69,2.07-1.06c.41-.22.78-.45,1.14-.67a7.4,7.4,0,0,0,1.34,2.65,2.71,2.71,0,0,0,2.12,1,7.57,7.57,0,0,0,1.69-.21,16.25,16.25,0,0,0,1.91-.57c.66-.23,1.32-.5,2-.8s1.3-.61,1.92-.92,1.19-.63,1.79-1a6.16,6.16,0,0,0,2.77,2.72,7.9,7.9,0,0,0,3.61.75,12.84,12.84,0,0,0,2.74-.3,17.71,17.71,0,0,0,2.69-.8,22.43,22.43,0,0,0,2.55-1.13c.74-.39,1.44-.78,2.1-1.18a6.78,6.78,0,0,0,0,.79,2.82,2.82,0,0,0,.49,1.4,2.66,2.66,0,0,0,1.16.9,5.1,5.1,0,0,0,1.94.32,8.42,8.42,0,0,0,2.86-.47c4.86-1.74,8.91-8.71,8.91-8.71C180.35,247.12,177.32,250.13,175.61,251.22Zm-22.4-5.42a11.67,11.67,0,0,1,.41-1.41,11,11,0,0,1,.66-1.45,6.39,6.39,0,0,1,1-1.28,4.47,4.47,0,0,1,1.3-.91,3.92,3.92,0,0,1,1.72-.35.87.87,0,0,1,.82.63,3,3,0,0,1,.12,1.64,2.91,2.91,0,0,1-.8,1.45,9.24,9.24,0,0,1-1.62,1.39,9.5,9.5,0,0,1-2,1.05A5.1,5.1,0,0,1,153,247C153,246.65,153.1,246.26,153.21,245.8Zm-10.7-10.47a44.81,44.81,0,0,1,1.55-4.35c.59-1.42,1.21-2.75,1.87-4a30.49,30.49,0,0,1,2-3.28,13.85,13.85,0,0,1,1.87-2.24,2.55,2.55,0,0,1,1.55-.83c.13,0,.17.15.15.45s-.07.67-.14,1.09a24.67,24.67,0,0,1-1.64,4.34c-.75,1.55-1.58,3.11-2.51,4.66s-1.89,3.08-2.89,4.55-1.93,2.79-2.8,4A32.79,32.79,0,0,1,142.51,235.33Zm-51.63,0c.45-1.49,1-2.94,1.55-4.35s1.21-2.75,1.87-4a30.49,30.49,0,0,1,2-3.28,13.85,13.85,0,0,1,1.87-2.24,2.54,2.54,0,0,1,1.56-.83c.12,0,.16.15.14.45s-.07.67-.14,1.09a24.67,24.67,0,0,1-1.64,4.34c-.75,1.55-1.58,3.11-2.51,4.66s-1.89,3.08-2.89,4.55-1.93,2.79-2.8,4A32.79,32.79,0,0,1,90.88,235.33Zm-21,7.92q3-3.58,6.78-3.59L74.93,247a11,11,0,0,1-2.18,4.3,4.44,4.44,0,0,1-3.37,2c-1.65,0-2.47-1.06-2.47-3.19S67.91,245.64,69.91,243.25Z" transform="translate(471.82 589.26)"/><path class="cls-8" d="M180.87,228a2.12,2.12,0,0,0-.67-1,3.18,3.18,0,0,0-1.14-.54,6.33,6.33,0,0,0-1.48-.17,5.74,5.74,0,0,0-2.18.38,5.2,5.2,0,0,0-1.51,1,4.63,4.63,0,0,0-.93,1.2,3.82,3.82,0,0,0-.41,1.15,2.83,2.83,0,0,0,.57,2.44,3.58,3.58,0,0,0,2.8.91A5.61,5.61,0,0,0,178,233a5.11,5.11,0,0,0,1.51-.89,4.45,4.45,0,0,0,1-1.26,4.85,4.85,0,0,0,.48-1.45A3,3,0,0,0,180.87,228Z" transform="translate(471.82 589.26)"/><path class="cls-3" d="M175.61,347.51c-.78.5-1.51,1-2.24,1.34a4.38,4.38,0,0,1-1.9.55.75.75,0,0,1-.84-.59,4.37,4.37,0,0,1,0-1.57,15.21,15.21,0,0,1,.59-2.29c.29-.84.62-1.71,1-2.6s.76-1.78,1.15-2.67l1.13-2.49c.34-.77.64-1.47.89-2.08a6.71,6.71,0,0,0,.45-1.4,1.09,1.09,0,0,0-.19-.91,1.65,1.65,0,0,0-1.25-.34,7.33,7.33,0,0,0-2.49.49,5.11,5.11,0,0,0-1.19.66,2.5,2.5,0,0,0-.79,1c-.45,1.1-1,2.31-1.51,3.61s-1.11,2.63-1.64,3.94c-.31.77-.59,1.53-.86,2.27-.42.31-.88.63-1.38.95a29.92,29.92,0,0,1-3,1.73,23.73,23.73,0,0,1-3.15,1.33,9.56,9.56,0,0,1-3,.53,3.24,3.24,0,0,1-.79-.09,1.79,1.79,0,0,1-.67-.31,2.3,2.3,0,0,1-.57-.62,5.61,5.61,0,0,1-.52-1,18.56,18.56,0,0,0,3.91-1.48,16.78,16.78,0,0,0,3.26-2.16,13,13,0,0,0,2.33-2.58,6.93,6.93,0,0,0,1.12-2.74,5.17,5.17,0,0,0-.09-2.27,4.13,4.13,0,0,0-1-1.73,4.57,4.57,0,0,0-1.72-1.11,6.2,6.2,0,0,0-2.3-.4,7.9,7.9,0,0,0-2.93.54,10.06,10.06,0,0,0-2.55,1.45,13,13,0,0,0-2.14,2.12,17.42,17.42,0,0,0-1.69,2.53,17.88,17.88,0,0,0-1.19,2.7,16.11,16.11,0,0,0-.66,2.61c-.06.36-.09.72-.12,1.06-.35.22-.7.45-1,.64s-.92.53-1.4.79-.94.48-1.39.68a9.5,9.5,0,0,1-1.26.47,3.54,3.54,0,0,1-1,.18c-.13,0-.24-.08-.35-.25a2.52,2.52,0,0,1-.28-.69,6.2,6.2,0,0,1-.15-1,4.64,4.64,0,0,1,.05-1.11l0-.31c.09-.29.2-.6.32-.9l.37-.88c.12-.27.24-.52.36-.76a6.3,6.3,0,0,1,.33-.57c.9-1.32,1.87-2.68,2.88-4.07s2-2.8,3.05-4.24,2-2.87,2.95-4.33,1.83-2.91,2.61-4.36a37.84,37.84,0,0,0,2-4.32,20.3,20.3,0,0,0,1.15-4.22,11.45,11.45,0,0,0,.15-1.82,4.92,4.92,0,0,0-.26-1.6,2.44,2.44,0,0,0-.82-1.14,2.48,2.48,0,0,0-1.55-.43,6.12,6.12,0,0,0-3,.84,14.49,14.49,0,0,0-3,2.3,29.83,29.83,0,0,0-3,3.44,46.06,46.06,0,0,0-2.82,4.25q-1.35,2.28-2.53,4.74t-2.13,4.92c-.64,1.63-1.17,3.22-1.61,4.76a34.89,34.89,0,0,0-1,4.26,26,26,0,0,0-.33,4.89l0,.53c-.37.23-.73.47-1.12.68-.61.35-1.21.66-1.79.93a13.45,13.45,0,0,1-1.63.65,4.28,4.28,0,0,1-1.25.24.9.9,0,0,1-.66-.21,1,1,0,0,1-.26-.59,4,4,0,0,1,0-.91c0-.34.09-.72.16-1.13a8.49,8.49,0,0,1,.32-1.18c.18-.57.4-1.23.67-2s.54-1.56.85-2.42.59-1.71.86-2.53.51-1.56.71-2.25a12.88,12.88,0,0,0,.39-1.62,1,1,0,0,0-.52-1,3.22,3.22,0,0,0-1.77-.4,4.86,4.86,0,0,0-1.89.36,1.72,1.72,0,0,0-1.06.9l-4,11.2a7.07,7.07,0,0,1-.79,1.58,6.59,6.59,0,0,1-1,1.17,4.57,4.57,0,0,1-1.1.73,2.55,2.55,0,0,1-1.06.25.84.84,0,0,1-.56-.18,1.07,1.07,0,0,1-.34-.46,2.14,2.14,0,0,1-.14-.65,3.31,3.31,0,0,1,.05-.76s.07-.24.21-.69.32-1,.56-1.74.5-1.54.8-2.46.6-1.86.92-2.83l1-2.89c.31-1,.59-1.83.85-2.61,0-.24-.1-.45-.42-.62a4.24,4.24,0,0,0-1.68-.3,2.91,2.91,0,0,0-1.36.37,4.81,4.81,0,0,0-1.16.91,8.32,8.32,0,0,0-.94,1.23,13.2,13.2,0,0,0-.75,1.35c-.21.44-.39.85-.54,1.22s-.24.68-.31.9c-.72,2.11-1.34,4-1.87,5.66-.3.27-.58.53-.9.8a31.12,31.12,0,0,1-2.88,2.18,20.69,20.69,0,0,1-2.91,1.65,6.18,6.18,0,0,1-2.51.65,2.81,2.81,0,0,1-1.74-.48,2.69,2.69,0,0,1-.92-1.19,4.24,4.24,0,0,1-.31-1.58,9.87,9.87,0,0,1,.11-1.65c.06-.35.14-.79.26-1.31a16,16,0,0,1,.46-1.65c.2-.57.44-1.15.71-1.73a6.9,6.9,0,0,1,1-1.56,4.79,4.79,0,0,1,1.3-1.13,3.16,3.16,0,0,1,1.66-.43.4.4,0,0,1,.44.35,2.74,2.74,0,0,1,0,.89,7.91,7.91,0,0,1-.16.79c-.07.3-.12.57-.16.84a2.62,2.62,0,0,0,.09,1.52c.16.37.59.55,1.3.55a2.6,2.6,0,0,0,1.33-.35,4.16,4.16,0,0,0,1.12-.94A5.77,5.77,0,0,0,111,339a6.26,6.26,0,0,0,.44-1.48,4.39,4.39,0,0,0-.13-2,4,4,0,0,0-1-1.62,4.75,4.75,0,0,0-1.71-1.07,6.92,6.92,0,0,0-2.34-.38,7.76,7.76,0,0,0-2.88.54,10.3,10.3,0,0,0-2.53,1.45,12.79,12.79,0,0,0-2.16,2.13A18.68,18.68,0,0,0,97,339.13a17.85,17.85,0,0,0-1.24,2.72,14.62,14.62,0,0,0-.69,2.67,10.62,10.62,0,0,0-.13,1.35l-.42.26c-.46.27-.92.53-1.4.79s-.94.48-1.39.68a9.5,9.5,0,0,1-1.26.47,3.54,3.54,0,0,1-1,.18c-.13,0-.24-.08-.35-.25a2.52,2.52,0,0,1-.28-.69c0-.06,0-.13,0-.2v0a3.49,3.49,0,0,0-.11-.81,4.56,4.56,0,0,1,0-1l0-.31c.09-.29.2-.6.32-.9l.37-.88c.12-.27.24-.52.36-.76a6.3,6.3,0,0,1,.33-.57c.9-1.32,1.87-2.68,2.88-4.07s2-2.8,3-4.24,2-2.87,3-4.33,1.83-2.91,2.61-4.36a37.84,37.84,0,0,0,2-4.32,20.3,20.3,0,0,0,1.15-4.22,11.45,11.45,0,0,0,.15-1.82,4.92,4.92,0,0,0-.26-1.6,2.44,2.44,0,0,0-.82-1.14,2.5,2.5,0,0,0-1.55-.43,6.12,6.12,0,0,0-3,.84,14.49,14.49,0,0,0-3,2.3,29.83,29.83,0,0,0-3,3.44,46.06,46.06,0,0,0-2.82,4.25q-1.35,2.28-2.53,4.74t-2.13,4.92c-.64,1.63-1.17,3.22-1.62,4.76a36.69,36.69,0,0,0-1,4.26c-.05.33-.09.65-.13,1-.13,1-.16,4.52-.16,4.52a17.06,17.06,0,0,0,.19,1.84,4.77,4.77,0,0,1-2.78,1.15c-.74,0-1.11-.52-1.11-1.57a2.81,2.81,0,0,1,.07-.72l1.82-11.22v-.39c0-1.13-.61-1.7-1.82-1.7h-1.5v-.39c0-.91-.9-1.37-2.68-1.37q-4.75,0-9,4.6A15.12,15.12,0,0,0,62,347a7.92,7.92,0,0,0,1.6,5.13,5.42,5.42,0,0,0,1.14,1.06c-6.63,2.65-17.19,5.79-24.16,3a7.93,7.93,0,0,1-3.39-2.42,9.16,9.16,0,0,1-1.73-4.06,17,17,0,0,1,.07-5.72,32.12,32.12,0,0,1,1.27-5,55.77,55.77,0,0,1,2.25-5.62c.9-1.94,1.92-3.87,3.07-5.82a66.57,66.57,0,0,1,3.73-5.61,59.77,59.77,0,0,1,4.23-5.05,34.8,34.8,0,0,1,4.57-4.08,23.35,23.35,0,0,1,4.74-2.72,12.34,12.34,0,0,1,4.77-1C74.54,311,64.4,325,57,325.84a6.07,6.07,0,1,0-3.49,11.05s2.52.5,8.05-2.57h0a24.63,24.63,0,0,0,3.58-1.82,28.48,28.48,0,0,0,4.46-3.36A31.14,31.14,0,0,0,73.46,325a25.92,25.92,0,0,0,2.85-4.62,17.23,17.23,0,0,0,1.53-4.76,13.2,13.2,0,0,0-.27-6.09,10.56,10.56,0,0,0-2.49-4.27,10.36,10.36,0,0,0-4-2.5,14,14,0,0,0-4.67-.81,23.21,23.21,0,0,0-7.2,1.15,32.88,32.88,0,0,0-6.93,3.17,45.8,45.8,0,0,0-6.5,4.74A58.61,58.61,0,0,0,40,316.91a67.57,67.57,0,0,0-5.08,6.65,69.16,69.16,0,0,0-4.1,7,57.14,57.14,0,0,0-3,6.85,36.07,36.07,0,0,0-1.65,6.29,24,24,0,0,0,.06,8.21,17.67,17.67,0,0,0,2.8,6.85,15,15,0,0,0,5.35,4.68,16.24,16.24,0,0,0,7.71,1.74,36.51,36.51,0,0,0,7.39-.58c12.76-2.65,19.71-7.69,23.41-12.05a8.75,8.75,0,0,0,2.4-2.86v-.13a5,5,0,0,0,1.46,3.1,4.77,4.77,0,0,0,3.4,1.14,7.83,7.83,0,0,0,4.47-1.65,4.22,4.22,0,0,0,.34.46,2.71,2.71,0,0,0,2.12,1.05,7.57,7.57,0,0,0,1.69-.21,16.13,16.13,0,0,0,1.91-.56c.66-.23,1.32-.5,2-.8l1.93-.92,1.34-.73a4.57,4.57,0,0,0,.29.47,6.24,6.24,0,0,0,2.33,2,7.65,7.65,0,0,0,3.54.75,8.64,8.64,0,0,0,2.44-.36,15.15,15.15,0,0,0,2.4-.95,19.22,19.22,0,0,0,2.27-1.33c.74-.5,1.43-1,2.08-1.55l.4-.34a7.2,7.2,0,0,0,0,2,3.46,3.46,0,0,0,.57,1.51,2.28,2.28,0,0,0,1,.81,3.56,3.56,0,0,0,1.37.25,5.62,5.62,0,0,0,1.93-.37,10.52,10.52,0,0,0,2.06-1,18.32,18.32,0,0,0,2.1-1.51,24,24,0,0,0,2-1.91,13.22,13.22,0,0,0,.25,1.84,4.56,4.56,0,0,0,.52,1.42,2.54,2.54,0,0,0,.91.93,2.76,2.76,0,0,0,1.42.33,9,9,0,0,0,1.9-.23,16.75,16.75,0,0,0,2.12-.62,23.25,23.25,0,0,0,2.18-.89c.72-.34,1.42-.69,2.07-1.06.41-.22.78-.45,1.14-.68a7.32,7.32,0,0,0,1.34,2.65,2.71,2.71,0,0,0,2.12,1.05,7.57,7.57,0,0,0,1.69-.21,16.13,16.13,0,0,0,1.91-.56c.66-.23,1.32-.5,2-.8s1.3-.61,1.92-.92,1.19-.63,1.79-1a6.27,6.27,0,0,0,2.77,2.71,7.9,7.9,0,0,0,3.61.75,12.84,12.84,0,0,0,2.74-.3,17.68,17.68,0,0,0,2.69-.79,22.48,22.48,0,0,0,2.55-1.14c.74-.38,1.44-.78,2.1-1.18a6.87,6.87,0,0,0,0,.8,2.82,2.82,0,0,0,.49,1.4,2.64,2.64,0,0,0,1.16.89,4.92,4.92,0,0,0,1.94.32,8.4,8.4,0,0,0,2.86-.46c4.86-1.75,8.91-8.71,8.91-8.71C180.35,343.41,177.32,346.43,175.61,347.51Zm-22.4-5.41a12.36,12.36,0,0,1,.41-1.42,11.51,11.51,0,0,1,.66-1.44,5.87,5.87,0,0,1,1-1.28,4.5,4.5,0,0,1,1.3-.92,4.06,4.06,0,0,1,1.72-.35.89.89,0,0,1,.82.64,2.91,2.91,0,0,1-.68,3.09,9.68,9.68,0,0,1-1.62,1.39,9.5,9.5,0,0,1-2,1.05,5.1,5.1,0,0,1-1.84.41C153,342.94,153.1,342.55,153.21,342.1Zm-10.7-10.47a45,45,0,0,1,1.55-4.36c.59-1.41,1.21-2.74,1.87-4a30.69,30.69,0,0,1,2-3.29,14.31,14.31,0,0,1,1.87-2.24,2.52,2.52,0,0,1,1.55-.82c.13,0,.17.15.15.45s-.07.66-.14,1.09a25,25,0,0,1-1.64,4.34c-.75,1.55-1.58,3.1-2.51,4.66s-1.89,3.07-2.89,4.55-1.93,2.79-2.8,4A32.08,32.08,0,0,1,142.51,331.63Zm-51.63,0c.45-1.49,1-2.95,1.55-4.36s1.21-2.74,1.87-4a30.69,30.69,0,0,1,2-3.29,14.31,14.31,0,0,1,1.87-2.24,2.52,2.52,0,0,1,1.56-.82c.12,0,.16.15.14.45s-.07.66-.14,1.09a25,25,0,0,1-1.64,4.34c-.75,1.55-1.58,3.1-2.51,4.66s-1.89,3.07-2.89,4.55-1.93,2.79-2.8,4A32.08,32.08,0,0,1,90.88,331.63Zm-21,7.92c2-2.4,4.26-3.59,6.78-3.59l-1.76,7.3a10.94,10.94,0,0,1-2.18,4.31,4.44,4.44,0,0,1-3.37,2c-1.65,0-2.47-1.07-2.47-3.2S67.91,341.94,69.91,339.55Z" transform="translate(471.82 589.26)"/><path class="cls-3" d="M180.87,324.25a2,2,0,0,0-.67-1,3.18,3.18,0,0,0-1.14-.54,5.83,5.83,0,0,0-1.48-.18,5.55,5.55,0,0,0-2.18.39,5,5,0,0,0-1.51,1,4.32,4.32,0,0,0-.93,1.2,3.82,3.82,0,0,0-.41,1.15,2.84,2.84,0,0,0,.57,2.44,3.58,3.58,0,0,0,2.8.91,5.61,5.61,0,0,0,2.05-.34,5.33,5.33,0,0,0,1.51-.89,4.45,4.45,0,0,0,1-1.26,4.91,4.91,0,0,0,.48-1.46A2.94,2.94,0,0,0,180.87,324.25Z" transform="translate(471.82 589.26)"/><path class="cls-3" d="M-336.4-203.54a4.87,4.87,0,0,1-4.31-2.27,11,11,0,0,1-1.51-6.18c0-.79,0-1.39.05-1.8a60.08,60.08,0,0,1,4.26-16.91,23.27,23.27,0,0,1,4.31-7,7.44,7.44,0,0,1,5.43-2.77,3.46,3.46,0,0,1,2.69,1.09,3.86,3.86,0,0,1,1,2.72v.44a26.54,26.54,0,0,1-4.59,11.82,40.91,40.91,0,0,1-8.91,10,26,26,0,0,0-.22,2.74q0,4.54,2.69,4.54t6.21-3.92a1.35,1.35,0,0,1,1-.39,1.62,1.62,0,0,1,1.12.47,1.51,1.51,0,0,1,.54,1.18,2.18,2.18,0,0,1-.68,1.43Q-331.58-203.53-336.4-203.54Zm6.84-32.31q-2.35,0-4.74,6a53.75,53.75,0,0,0-3.22,11.37,52,52,0,0,0,6.08-8.4q2.78-4.71,2.83-7.84C-328.61-235.48-328.93-235.85-329.56-235.85Z" transform="translate(471.82 589.26)"/><path class="cls-3" d="M-329.9-211.1a12.19,12.19,0,0,1,2.69-7.59,8.22,8.22,0,0,1,6.77-3.5,5.34,5.34,0,0,1,3.78,1.32,4.06,4.06,0,0,1,1.43,3.05,5.27,5.27,0,0,1-1.06,3.19c-.71,1-1.33,1.46-1.85,1.46a1.43,1.43,0,0,1-1.18-.48,1.45,1.45,0,0,1-.39-.92,2.69,2.69,0,0,1,.36-1.15,3,3,0,0,0,.37-1.43,1.27,1.27,0,0,0-.51-1.09,1.94,1.94,0,0,0-1.17-.36,4.61,4.61,0,0,0-3.45,2,8.45,8.45,0,0,0-1.65,5.6,4.38,4.38,0,0,0,1.18,3.25,4.17,4.17,0,0,0,3.08,1.17q4,0,8.57-5a1,1,0,0,1,.72-.33,1,1,0,0,1,.76.47,1.67,1.67,0,0,1,.36,1,1.82,1.82,0,0,1-.22.92,14.86,14.86,0,0,1-4.45,4.37,11.84,11.84,0,0,1-6.61,1.85,7.37,7.37,0,0,1-6.13-3.08A7.43,7.43,0,0,1-329.9-211.1Z" transform="translate(471.82 589.26)"/><path class="cls-3" d="M-297.2-220.34a52.77,52.77,0,0,0-2.52,11.15l0,.67q0,1.29.78,1.29,1.78-.12,4.65-3.25a2.1,2.1,0,0,1,1.2-.56,1.85,1.85,0,0,1,1.15.64,1.76,1.76,0,0,1,.67,1.21q0,1.27-3.44,3.5t-5.52,2.21q-3.3,0-3.36-3.31l.17-1.73a9.12,9.12,0,0,1-2.35,3.41,5.76,5.76,0,0,1-4.15,1.68,4.21,4.21,0,0,1-3.61-1.62,6.88,6.88,0,0,1-1.2-4.2,23.12,23.12,0,0,1,1.15-7,27.53,27.53,0,0,1,1.82-4.79,2,2,0,0,1,1.76-1.15,2.71,2.71,0,0,1,1.65.42c.37.28.56.55.56.79a35.25,35.25,0,0,1-1.34,4.11,26.06,26.06,0,0,0-1.57,6.61v.39c0,1.83.63,2.75,1.9,2.75a4.39,4.39,0,0,0,3.11-1.77,12,12,0,0,0,2.49-4.84l1.52-5.6a5.79,5.79,0,0,1,1.09-2.35,1.93,1.93,0,0,1,1.4-.51,2.24,2.24,0,0,1,1.48.51,1.44,1.44,0,0,1,.62,1.12Z" transform="translate(471.82 589.26)"/><path class="cls-3" d="M-287.68-203.54a4.86,4.86,0,0,1-4.31-2.27A11,11,0,0,1-293.5-212c0-.79,0-1.39.05-1.8a60.08,60.08,0,0,1,4.26-16.91,23.07,23.07,0,0,1,4.31-7,7.44,7.44,0,0,1,5.43-2.77,3.48,3.48,0,0,1,2.69,1.09,3.86,3.86,0,0,1,1,2.72v.44a26.78,26.78,0,0,1-4.59,11.82,40.91,40.91,0,0,1-8.91,10,23.49,23.49,0,0,0-.22,2.74c0,3,.89,4.54,2.69,4.54s3.93-1.31,6.21-3.92a1.33,1.33,0,0,1,1-.39,1.64,1.64,0,0,1,1.12.47,1.5,1.5,0,0,1,.53,1.18,2.16,2.16,0,0,1-.67,1.43Q-282.85-203.53-287.68-203.54Zm6.83-32.31c-1.57,0-3.14,2-4.73,6a53.17,53.17,0,0,0-3.22,11.37,52.63,52.63,0,0,0,6.08-8.4c1.84-3.14,2.79-5.75,2.82-7.84C-279.9-235.48-280.21-235.85-280.85-235.85Z" transform="translate(471.82 589.26)"/><path class="cls-3" d="M-281.18-210.93a12.43,12.43,0,0,1,2.71-7.7,8.07,8.07,0,0,1,6.58-3.56,5.67,5.67,0,0,1,3.81,1.29,4.32,4.32,0,0,1,1.51,3.47,6,6,0,0,1-2.52,5,19.36,19.36,0,0,1-7.61,3q.78,2.4,4,2.4a12.13,12.13,0,0,0,8.45-3.8,1,1,0,0,1,.7-.23,1.3,1.3,0,0,1,.9.39,1.27,1.27,0,0,1,.42,1,2,2,0,0,1-.39,1.12A13,13,0,0,1-267-205a13,13,0,0,1-6.3,1.65,8.35,8.35,0,0,1-5.57-1.93A7,7,0,0,1-281.18-210.93Zm9.38-7.62a4.62,4.62,0,0,0-3.5,2.1,7.1,7.1,0,0,0-1.68,4.51q7-2.4,7-5C-270-218-270.59-218.55-271.8-218.55Z" transform="translate(471.82 589.26)"/><path class="cls-3" d="M-264.1-209.08a22.66,22.66,0,0,1,.89-5.8,23.92,23.92,0,0,1,1.79-5,4.74,4.74,0,0,1,1.54-1.94,3.43,3.43,0,0,1,1.46-.3,2.47,2.47,0,0,1,1.4.39,1.07,1.07,0,0,1,.59.84,4,4,0,0,1-.65,1.57,24.76,24.76,0,0,0-1.65,4.36,18.8,18.8,0,0,0-1,5.21c0,1.76.66,2.63,2,2.63q2.35,0,5.66-3.8a1.33,1.33,0,0,1,1.09-.56,1.72,1.72,0,0,1,1.18.47,1.48,1.48,0,0,1,.53,1.12,2.41,2.41,0,0,1-.62,1.43q-4.14,4.88-8.62,4.87a5.38,5.38,0,0,1-4-1.54A5.45,5.45,0,0,1-264.1-209.08Zm8.23-16.69c-2,0-3-.88-3-2.63a2.72,2.72,0,0,1,1-2.21,3.76,3.76,0,0,1,2.5-.82c1.86,0,2.8.84,2.8,2.52a3,3,0,0,1-.9,2.3A3.3,3.3,0,0,1-255.87-225.77Z" transform="translate(471.82 589.26)"/><path class="cls-3" d="M-468.22-310.85c.06-.25.14-.53.22-.84a6.84,6.84,0,0,1,.34-.92,4.36,4.36,0,0,1,.52-.91,3.3,3.3,0,0,1,.8-.78,4.23,4.23,0,0,1,1.17-.54,5.47,5.47,0,0,1,1.61-.21h5.3a1.4,1.4,0,0,1,.72.18,1.57,1.57,0,0,1,.51.44,2.23,2.23,0,0,1,.3.57,1.81,1.81,0,0,1,.1.58,1.39,1.39,0,0,1-.21.72,2.7,2.7,0,0,1-.53.64,3,3,0,0,1-.7.44,1.79,1.79,0,0,1-.73.16h-4.76s0,.27-.1.72-.15,1.06-.27,1.82-.24,1.65-.39,2.66l-.48,3.21c-.17,1.12-.35,2.28-.52,3.47s-.36,2.34-.53,3.46l-.48,3.18c-.15,1-.29,1.86-.4,2.6l-.28,1.76c-.06.43-.1.64-.1.63h4.77a1.37,1.37,0,0,1,.52.1,1.55,1.55,0,0,1,.44.3,1.9,1.9,0,0,1,.3.44,1.25,1.25,0,0,1,.12.54,1.79,1.79,0,0,1-.19.65,3.38,3.38,0,0,1-.54.77,3.42,3.42,0,0,1-.84.65,2.11,2.11,0,0,1-1.05.28h-5.29a4.72,4.72,0,0,1-1.48-.2,2.29,2.29,0,0,1-.9-.51,1.89,1.89,0,0,1-.45-.74,3.15,3.15,0,0,1-.12-.87,5.31,5.31,0,0,1,.09-1c.06-.33.12-.63.18-.91.2-1,.4-2.11.6-3.29s.39-2.4.59-3.64.38-2.49.56-3.76.36-2.46.51-3.62C-468.92-305.31-468.57-308.06-468.22-310.85Z" transform="translate(471.82 589.26)"/><path class="cls-3" d="M-244.48-288.28c-.07.25-.14.54-.23.84a5.65,5.65,0,0,1-.33.92,4.85,4.85,0,0,1-.52.91,3.49,3.49,0,0,1-.8.78,4.52,4.52,0,0,1-1.17.54,5.54,5.54,0,0,1-1.62.21h-5.13a1.51,1.51,0,0,1-.78-.2,1.82,1.82,0,0,1-.56-.47,2.16,2.16,0,0,1-.34-.61,1.65,1.65,0,0,1-.11-.59,1.41,1.41,0,0,1,.18-.68,2.44,2.44,0,0,1,.47-.6,2.66,2.66,0,0,1,.64-.43,1.79,1.79,0,0,1,.69-.15h4.94s0-.27.1-.72.16-1.06.27-1.82.24-1.65.39-2.66.31-2.08.49-3.21.34-2.28.52-3.47.35-2.34.52-3.46.34-2.18.49-3.18.28-1.86.4-2.6.21-1.33.27-1.76.1-.64.1-.63h-4.33a1.37,1.37,0,0,1-.62-.14,2.1,2.1,0,0,1-.56-.37,2.29,2.29,0,0,1-.41-.53,1.44,1.44,0,0,1-.16-.64,1.86,1.86,0,0,1,.14-.61,2.63,2.63,0,0,1,.41-.67,2.51,2.51,0,0,1,.66-.54,1.71,1.71,0,0,1,.87-.23h5.77a4.61,4.61,0,0,1,1.47.2,2.17,2.17,0,0,1,.9.51,1.74,1.74,0,0,1,.45.74,3.16,3.16,0,0,1,.13.87,5.52,5.52,0,0,1-.1,1c-.06.33-.12.63-.17.9-.2,1-.4,2.11-.61,3.29s-.4,2.4-.59,3.65-.37,2.5-.56,3.75-.35,2.46-.51,3.62C-243.78-293.82-244.14-291.07-244.48-288.28Z" transform="translate(471.82 589.26)"/><path class="cls-4" d="M-354.74-64.64s10.26-1.21,10.26-9.91" transform="translate(471.82 589.26)"/><path class="cls-5" d="M-291.74-64.64s10.25-1.21,10.25-9.91" transform="translate(471.82 589.26)"/><path class="cls-5" d="M-274.28-73.09a27.77,27.77,0,0,1-7.6,5.08" transform="translate(471.82 589.26)"/><path class="cls-8" d="M-238.12,122.39c-.94.6-1.82,1.16-2.69,1.61a5.24,5.24,0,0,1-2.29.66c-.57,0-.91-.23-1-.7a5.27,5.27,0,0,1,0-1.9,17.49,17.49,0,0,1,.71-2.75c.35-1,.74-2.06,1.18-3.13s.91-2.15,1.39-3.22l1.35-3q.63-1.39,1.08-2.49a8.36,8.36,0,0,0,.54-1.69,1.32,1.32,0,0,0-.24-1.1,1.94,1.94,0,0,0-1.49-.41,8.71,8.71,0,0,0-1.43.14,8.87,8.87,0,0,0-1.58.45,6.18,6.18,0,0,0-1.42.8,3,3,0,0,0-1,1.18c-.53,1.33-5.21,18.24-6.43,20.52a3.38,3.38,0,0,0,.44.94,3.08,3.08,0,0,0,1.4,1.07,5.93,5.93,0,0,0,2.33.39,10,10,0,0,0,3.44-.56c5.86-2.1,10.72-10.49,10.72-10.49C-232.41,117.46-236.06,121.09-238.12,122.39Z" transform="translate(471.82 589.26)"/><path class="cls-8" d="M-231.78,94.39a2.57,2.57,0,0,0-.82-1.16,3.71,3.71,0,0,0-1.37-.65,7.16,7.16,0,0,0-1.77-.21,6.72,6.72,0,0,0-2.63.47A6.21,6.21,0,0,0-240.2,94a5.26,5.26,0,0,0-1.11,1.44,4.81,4.81,0,0,0-.5,1.39,3.41,3.41,0,0,0,.69,2.93,4.35,4.35,0,0,0,3.38,1.1,6.89,6.89,0,0,0,2.46-.41,6,6,0,0,0,1.82-1.08,5,5,0,0,0,1.2-1.51,6,6,0,0,0,.58-1.75A3.49,3.49,0,0,0-231.78,94.39Z" transform="translate(471.82 589.26)"/><path class="cls-8" d="M-365.61,121.11c-2.06,1.12-4.1,2.3-6.1,3.54l-6,3.69a58.8,58.8,0,0,1-6.15,3.3,39,39,0,0,1-6.49,2.37,27.1,27.1,0,0,1-7.06.9,14.9,14.9,0,0,1-5.23-.85,8.23,8.23,0,0,1-3.62-2.59,9.76,9.76,0,0,1-1.85-4.34,18.25,18.25,0,0,1,.07-6.11,33.74,33.74,0,0,1,1.36-5.36,57.37,57.37,0,0,1,2.41-6q1.44-3.1,3.28-6.22a67.46,67.46,0,0,1,4-6,59.69,59.69,0,0,1,4.51-5.4,37.39,37.39,0,0,1,4.88-4.36,24.65,24.65,0,0,1,5.07-2.9,13.1,13.1,0,0,1,5.1-1.08c11.06,2.09.24,17-7.63,17.92a6.43,6.43,0,0,0-3.72-1.18,6.5,6.5,0,0,0-6.49,6.49,6.49,6.49,0,0,0,6.49,6.49s2.69.54,8.6-2.74h0a26.51,26.51,0,0,0,3.83-1.94,30.56,30.56,0,0,0,4.75-3.59,33.48,33.48,0,0,0,4.09-4.44,27.65,27.65,0,0,0,3-4.93,18.58,18.58,0,0,0,1.63-5.09,14.12,14.12,0,0,0-.28-6.5,11.31,11.31,0,0,0-2.66-4.56A11.09,11.09,0,0,0-370.06,77a14.84,14.84,0,0,0-5-.87,25.12,25.12,0,0,0-7.69,1.22,35.69,35.69,0,0,0-7.41,3.39,48.29,48.29,0,0,0-6.93,5.07,62.47,62.47,0,0,0-6.28,6.32,71.34,71.34,0,0,0-5.42,7.11,74.63,74.63,0,0,0-4.38,7.43,61.5,61.5,0,0,0-3.18,7.32,38,38,0,0,0-1.77,6.72,25.5,25.5,0,0,0,.07,8.77,18.79,18.79,0,0,0,3,7.31,16,16,0,0,0,5.71,5,17.48,17.48,0,0,0,8.24,1.85,47.17,47.17,0,0,0,7.89-.61,44.5,44.5,0,0,0,6.71-1.65,39.29,39.29,0,0,0,5.73-2.42,56.14,56.14,0,0,0,4.93-2.89c1.52-1,3-2,4.3-3.06s2.64-2,3.89-3S-363.56,120-365.61,121.11Z" transform="translate(471.82 589.26)"/><path class="cls-8" d="M-231.78,94.39a2.57,2.57,0,0,0-.82-1.16,3.71,3.71,0,0,0-1.37-.65,7.16,7.16,0,0,0-1.77-.21,6.72,6.72,0,0,0-2.63.47A6.21,6.21,0,0,0-240.2,94a5.26,5.26,0,0,0-1.11,1.44,4.81,4.81,0,0,0-.5,1.39,3.41,3.41,0,0,0,.69,2.93,4.35,4.35,0,0,0,3.38,1.1,6.89,6.89,0,0,0,2.46-.41,6,6,0,0,0,1.82-1.08,5,5,0,0,0,1.2-1.51,6,6,0,0,0,.58-1.75A3.49,3.49,0,0,0-231.78,94.39Z" transform="translate(471.82 589.26)"/><path class="cls-8" d="M-258.82,123.49a11.23,11.23,0,0,1-3.56.64,4,4,0,0,1-.95-.11,2.29,2.29,0,0,1-.81-.37,2.89,2.89,0,0,1-.68-.74,6.65,6.65,0,0,1-.62-1.2,21.8,21.8,0,0,0,4.7-1.78,19.92,19.92,0,0,0,3.92-2.6,15,15,0,0,0,2.81-3.11,8.16,8.16,0,0,0,1.35-3.29,6.32,6.32,0,0,0-.11-2.73,4.93,4.93,0,0,0-1.19-2.09,5.83,5.83,0,0,0-2.07-1.34,7.59,7.59,0,0,0-2.77-.48,9.59,9.59,0,0,0-3.53.65,12.53,12.53,0,0,0-3.07,1.76,15.54,15.54,0,0,0-2.58,2.55,19.57,19.57,0,0,0-2,3,20.77,20.77,0,0,0-1.44,3.25c-.16.47-.28.92-.4,1.37a23.74,23.74,0,0,1-.51,2.83l0,.22,0,0a22.05,22.05,0,0,1-4.05,8.13l.59-.25c.79-.36,1.57-.73,2.32-1.1s1.43-.76,2.15-1.17a8.85,8.85,0,0,0,.5.84,7.49,7.49,0,0,0,2.83,2.43,9.58,9.58,0,0,0,4.35.9,15.58,15.58,0,0,0,3.3-.36,23.13,23.13,0,0,0,3.24-1c.64-.24,1.26-.51,1.87-.79a1.33,1.33,0,0,0,.56-.49,19,19,0,0,0,2.67-7c-1,.6-1.93,1.17-3,1.69A26.29,26.29,0,0,1-258.82,123.49Zm-6.27-7.62a14,14,0,0,1,.5-1.7,12.25,12.25,0,0,1,.8-1.74,7.32,7.32,0,0,1,1.14-1.54,5.48,5.48,0,0,1,1.57-1.1,4.89,4.89,0,0,1,2.08-.42,1.06,1.06,0,0,1,1,.77,3.71,3.71,0,0,1,.14,2,3.41,3.41,0,0,1-1,1.75,11.44,11.44,0,0,1-1.94,1.68,12.48,12.48,0,0,1-2.36,1.26,6.1,6.1,0,0,1-2.23.49C-265.31,116.89-265.21,116.42-265.09,115.87Z" transform="translate(471.82 589.26)"/><path class="cls-8" d="M-261.37,80.66a2.92,2.92,0,0,0-1-1.37,3.06,3.06,0,0,0-1.86-.52,7.33,7.33,0,0,0-3.55,1,17.12,17.12,0,0,0-3.64,2.78A35.16,35.16,0,0,0-275,86.7a59.58,59.58,0,0,0-3.39,5.11q-1.62,2.75-3,5.71c-.94,2-1.8,4-2.56,5.92s-1.42,3.88-1.95,5.73a43.73,43.73,0,0,0-1.17,5.13,31.76,31.76,0,0,0-.4,5.89c0,.21,0,.42,0,.63-.45.28-.88.56-1.35.83q-1.11.61-2.16,1.11a17.76,17.76,0,0,1-1.95.79,5.32,5.32,0,0,1-1.51.29,1.13,1.13,0,0,1-.8-.25,1.26,1.26,0,0,1-.31-.72,4.44,4.44,0,0,1,0-1.09c0-.42.11-.87.19-1.37a11,11,0,0,1,.39-1.42c.22-.68.48-1.47.8-2.38s.66-1.87,1-2.92.72-2,1.05-3,.61-1.88.85-2.71a15.38,15.38,0,0,0,.47-2,1.17,1.17,0,0,0-.62-1.22,4,4,0,0,0-2.14-.48,5.81,5.81,0,0,0-2.27.44,2.1,2.1,0,0,0-1.28,1.08l-4.85,13.49a8.65,8.65,0,0,1-.95,1.9,7.38,7.38,0,0,1-1.23,1.4,5.24,5.24,0,0,1-1.32.88,3.21,3.21,0,0,1-1.28.3,1.06,1.06,0,0,1-.68-.21,1.28,1.28,0,0,1-.4-.56,2.35,2.35,0,0,1-.17-.78,4.86,4.86,0,0,1,.05-.92s.09-.29.26-.82.39-1.23.67-2.1l1-3c.36-1.1.73-2.24,1.12-3.41s.76-2.33,1.14-3.48.71-2.19,1-3.13c0-.3-.13-.55-.51-.76a5.29,5.29,0,0,0-2-.36,3.53,3.53,0,0,0-1.65.46,5.72,5.72,0,0,0-1.39,1.08,10.84,10.84,0,0,0-1.14,1.49,16.45,16.45,0,0,0-.89,1.62c-.26.53-.48,1-.65,1.47s-.3.81-.37,1.08c-.49,1.43-.94,2.77-1.36,4,.25.24-2,6.64-2.39,11.43a3.91,3.91,0,0,0,.62,1.58,2.76,2.76,0,0,0,1.25,1,4.4,4.4,0,0,0,1.65.29,6.78,6.78,0,0,0,2.33-.44,13.46,13.46,0,0,0,2.49-1.2,22.92,22.92,0,0,0,2.51-1.82,27.63,27.63,0,0,0,2.44-2.3,15.49,15.49,0,0,0,.3,2.22,5.74,5.74,0,0,0,.63,1.71,3.08,3.08,0,0,0,1.09,1.12,3.39,3.39,0,0,0,1.72.39,10.26,10.26,0,0,0,2.28-.28,20.68,20.68,0,0,0,2.55-.74c.87-.31,1.74-.67,2.62-1.07s1.71-.84,2.5-1.28c.48-.27.94-.54,1.37-.81a8.84,8.84,0,0,0,1.62,3.19,3.23,3.23,0,0,0,2.54,1.26h.09a.85.85,0,0,1,.14-.1,17.93,17.93,0,0,0,6-7.47c-.21.1-.44.23-.64.32a13.27,13.27,0,0,1-1.51.57,4.4,4.4,0,0,1-1.23.21c-.14,0-.28-.1-.41-.31a2.53,2.53,0,0,1-.34-.82,6.26,6.26,0,0,1-.18-1.17,6.1,6.1,0,0,1,.06-1.34l.06-.37c.11-.35.24-.72.39-1.09s.3-.72.44-1.05.29-.63.43-.91a6.12,6.12,0,0,1,.4-.69q1.64-2.4,3.47-4.9t3.66-5.1c1.23-1.73,2.41-3.47,3.57-5.22s2.2-3.5,3.14-5.24a46.44,46.44,0,0,0,2.41-5.21,25,25,0,0,0,1.39-5.08,12.73,12.73,0,0,0,.17-2.19A5.79,5.79,0,0,0-261.37,80.66Zm-5.8,5.46c0,.36-.08.8-.17,1.31a29,29,0,0,1-2,5.22q-1.35,2.8-3,5.62c-1.12,1.87-2.28,3.7-3.48,5.47s-2.33,3.36-3.37,4.78a40.23,40.23,0,0,1,1.21-5.25c.54-1.8,1.17-3.54,1.87-5.24s1.46-3.3,2.25-4.81a40.16,40.16,0,0,1,2.38-4,17,17,0,0,1,2.26-2.69,3,3,0,0,1,1.87-1C-267.2,85.57-267.14,85.75-267.17,86.12Z" transform="translate(471.82 589.26)"/><path class="cls-8" d="M-347.28,128.5a4.16,4.16,0,0,0,.88.77.72.72,0,0,0,.75,0c2.23-1.35,5.42-3.73,6.93-7l-.41.21a12.71,12.71,0,0,1-1.52.57,4.33,4.33,0,0,1-1.22.21c-.15,0-.28-.1-.42-.31a2.78,2.78,0,0,1-.33-.82,6.26,6.26,0,0,1-.18-1.17,5.54,5.54,0,0,1,.06-1.34l.06-.37c.11-.35.24-.72.39-1.09s.3-.72.44-1.05.29-.63.43-.91a6.12,6.12,0,0,1,.4-.69c1.09-1.6,2.24-3.23,3.47-4.9s2.44-3.38,3.66-5.1,2.41-3.47,3.56-5.22,2.2-3.5,3.15-5.24a46.44,46.44,0,0,0,2.41-5.21,25,25,0,0,0,1.39-5.08,13.82,13.82,0,0,0,.17-2.19,6.05,6.05,0,0,0-.31-1.93,2.87,2.87,0,0,0-1-1.37,3,3,0,0,0-1.86-.52,7.39,7.39,0,0,0-3.55,1,17.37,17.37,0,0,0-3.64,2.78,36.07,36.07,0,0,0-3.58,4.14,59.58,59.58,0,0,0-3.39,5.11c-1.08,1.83-2.1,3.73-3,5.71s-1.8,4-2.57,5.92-1.41,3.88-1.94,5.73a43.73,43.73,0,0,0-1.17,5.13c-.06.4-.11.79-.16,1.17l-.37.06-1.74.29a.7.7,0,0,1-.74-1l.75-1.46c.45-.86.85-1.67,1.22-2.4s.66-1.4.9-2a7.76,7.76,0,0,0,.44-1.39,1.51,1.51,0,0,0-.35-1.34,3,3,0,0,0-2-.49,6.24,6.24,0,0,0-1.39.18,7.15,7.15,0,0,0-1.54.56,5.81,5.81,0,0,0-1.41,1,4,4,0,0,0-1,1.45q-.84,1.75-1.83,3.75t-2,4.12h-.44l-1.57,0-.94,0a.7.7,0,0,1-.57-1.06q1.33-2.17,2.58-4.27c1-1.73,2-3.42,2.85-5.09s1.68-3.33,2.39-5a45.26,45.26,0,0,0,1.85-5c0-.15-.07-.3-.27-.44a2.39,2.39,0,0,0-.83-.34,8.82,8.82,0,0,0-1.27-.21,13.19,13.19,0,0,0-1.58-.09,17.7,17.7,0,0,0-2,.12,11.26,11.26,0,0,0-1.95.36,7.33,7.33,0,0,0-1.59.6,2.24,2.24,0,0,0-1,.88c-.56,1.58-1.08,3-1.55,4.27s-.91,2.45-1.34,3.55-.86,2.13-1.28,3.1-.87,2-1.33,2.91-1,2-1.53,3-1.14,2.11-1.79,3.28l-.07.11a20.91,20.91,0,0,0-1.75,2.35,5.51,5.51,0,0,0-.85,2,1.87,1.87,0,0,0,.1,1,.82.82,0,0,0,.81.42,10.41,10.41,0,0,0,2.79-.41c1-.27,2-.57,3.08-.91s2.22-.64,3.42-.91a17.29,17.29,0,0,1,2.77-.38.71.71,0,0,1,.7,1q-.56,1.35-1,2.58a17.66,17.66,0,0,0-.81,3,5.27,5.27,0,0,0,0,1.9,2.08,2.08,0,0,0,.67,1.16,2.83,2.83,0,0,0,1.29.57,10,10,0,0,0,1.85.14c.91,0,1.87,0,2.88-.11s2-.11,2.95-.11a.8.8,0,0,0,.43-.08.45.45,0,0,0,.12-.25,1.52,1.52,0,0,0-.33-1l-.84-1.35a16.65,16.65,0,0,1-.82-1.48,2.26,2.26,0,0,1-.28-1.34l.1-.61a16.92,16.92,0,0,1,.57-1.87c.18-.52.38-1,.6-1.58a.7.7,0,0,1,.68-.43l2.38.09c.68,0,1.34,0,2,0a.7.7,0,0,1,.68.65,17.46,17.46,0,0,0,.61,3.56A9,9,0,0,0-347.28,128.5Zm7.16-25.23A53.3,53.3,0,0,1-338.25,98q1.06-2.55,2.25-4.81a40.16,40.16,0,0,1,2.38-4,16.47,16.47,0,0,1,2.26-2.69,3,3,0,0,1,1.87-1c.14,0,.2.18.17.55s-.08.77-.16,1.26c0,0,0,.07,0,.09a29.1,29.1,0,0,1-2,5.18q-1.35,2.8-3,5.62c-1.11,1.87-2.27,3.7-3.47,5.47l-1.46,2.11a.7.7,0,0,1-1.25-.57C-340.51,104.62-340.32,104-340.12,103.27Z" transform="translate(471.82 589.26)"/><path class="cls-8" d="M-321.65,123.88a7.42,7.42,0,0,1-3,.78,3.45,3.45,0,0,1-2.1-.57,3.45,3.45,0,0,1-1.11-1.43,5.1,5.1,0,0,1-.37-1.9,11.66,11.66,0,0,1,.14-2c.07-.43.17-1,.3-1.58a20.08,20.08,0,0,1,.56-2,21.33,21.33,0,0,1,.85-2.09,9,9,0,0,1,1.19-1.88,6.1,6.1,0,0,1,1.57-1.36,3.89,3.89,0,0,1,2-.51.47.47,0,0,1,.53.42,3.22,3.22,0,0,1,0,1.06c-.05.29-.11.6-.19,1s-.15.69-.2,1a3.32,3.32,0,0,0,.1,1.83c.2.44.72.66,1.58.66a3.24,3.24,0,0,0,1.6-.42,4.92,4.92,0,0,0,1.34-1.13,6.51,6.51,0,0,0,1-1.58,7.26,7.26,0,0,0,.53-1.78,5.18,5.18,0,0,0-.15-2.43,4.64,4.64,0,0,0-1.17-2,5.57,5.57,0,0,0-2.06-1.29,8,8,0,0,0-2.81-.46,9.19,9.19,0,0,0-3.47.65,12.37,12.37,0,0,0-3.05,1.75,15.67,15.67,0,0,0-2.59,2.56,22.1,22.1,0,0,0-2.08,3.07,21.37,21.37,0,0,0-1.49,3.28c-.3.84-2.85,10.55-5.42,13,.56-.21,1.12-.44,1.69-.7.79-.36,1.56-.73,2.32-1.1l1.62-.88c.11.19.22.38.34.56a7.6,7.6,0,0,0,2.8,2.42,9.31,9.31,0,0,0,4.28.9,10.29,10.29,0,0,0,2.92-.44,17.35,17.35,0,0,0,2.89-1.14c.5-.25,1-.52,1.48-.81l.06-.05a13.71,13.71,0,0,0,3.81-6.85.24.24,0,0,0-.39-.24c-.74.59-1.49,1.15-2.27,1.67A24.62,24.62,0,0,1-321.65,123.88Z" transform="translate(471.82 589.26)"/><path class="cls-9" d="M-117.57,256.92c-1,.6-1.82,1.17-2.69,1.61a5.28,5.28,0,0,1-2.3.66.9.9,0,0,1-1-.7,5.55,5.55,0,0,1,0-1.9,17.77,17.77,0,0,1,.71-2.75c.34-1,.74-2.06,1.18-3.13s.91-2.14,1.39-3.22.93-2.07,1.35-3,.78-1.76,1.08-2.49a9.91,9.91,0,0,0,.54-1.69,1.32,1.32,0,0,0-.24-1.1,2,2,0,0,0-1.49-.41,8.71,8.71,0,0,0-1.43.14,8.14,8.14,0,0,0-1.58.46,6,6,0,0,0-1.42.79,2.92,2.92,0,0,0-1,1.18c-.54,1.33-5.21,18.24-6.43,20.52a3.23,3.23,0,0,0,.43.94,3.25,3.25,0,0,0,1.41,1.08,6.13,6.13,0,0,0,2.33.38,10,10,0,0,0,3.44-.56c5.86-2.1,10.72-10.49,10.72-10.49C-111.86,252-115.51,255.62-117.57,256.92Z" transform="translate(471.82 589.26)"/><path class="cls-9" d="M-111.24,228.92a2.47,2.47,0,0,0-.81-1.15,3.72,3.72,0,0,0-1.37-.66,7.18,7.18,0,0,0-1.78-.21,6.75,6.75,0,0,0-2.63.47,6.15,6.15,0,0,0-1.82,1.14,5.39,5.39,0,0,0-1.12,1.45,4.91,4.91,0,0,0-.49,1.38,3.41,3.41,0,0,0,.69,2.93,4.3,4.3,0,0,0,3.38,1.1,6.66,6.66,0,0,0,2.45-.41,6.09,6.09,0,0,0,1.83-1.07,5.07,5.07,0,0,0,1.19-1.52,5.63,5.63,0,0,0,.58-1.75A3.37,3.37,0,0,0-111.24,228.92Z" transform="translate(471.82 589.26)"/><path class="cls-9" d="M-245.07,255.64q-3.09,1.68-6.09,3.54l-6,3.69a60.88,60.88,0,0,1-6.15,3.3,39.37,39.37,0,0,1-6.49,2.37,27.1,27.1,0,0,1-7.06.9,14.67,14.67,0,0,1-5.23-.85,8.17,8.17,0,0,1-3.62-2.59,9.6,9.6,0,0,1-1.85-4.34,18.25,18.25,0,0,1,.07-6.11,33.74,33.74,0,0,1,1.36-5.36,55.26,55.26,0,0,1,2.41-6,66.44,66.44,0,0,1,3.28-6.21,64.14,64.14,0,0,1,4-6,59.69,59.69,0,0,1,4.51-5.4,36.57,36.57,0,0,1,4.88-4.35,24.26,24.26,0,0,1,5.07-2.91,13.05,13.05,0,0,1,5.09-1.08c11.07,2.09.25,17-7.62,17.92a6.52,6.52,0,0,0-3.3-1.16,6.65,6.65,0,0,0-6.91,6.4,6.49,6.49,0,0,0,6.49,6.56s2.69.54,8.59-2.74h0a26.85,26.85,0,0,0,3.82-1.93,30.7,30.7,0,0,0,4.76-3.6,33.48,33.48,0,0,0,4.09-4.44,28.24,28.24,0,0,0,3-4.93,18.58,18.58,0,0,0,1.63-5.09,14.12,14.12,0,0,0-.29-6.5,11.18,11.18,0,0,0-2.65-4.56,11.17,11.17,0,0,0-4.24-2.67,14.84,14.84,0,0,0-5-.87,24.83,24.83,0,0,0-7.69,1.23,35.14,35.14,0,0,0-7.41,3.38,48.94,48.94,0,0,0-6.94,5.07,63.43,63.43,0,0,0-6.27,6.32,72.51,72.51,0,0,0-5.42,7.11,71.93,71.93,0,0,0-4.39,7.44,59,59,0,0,0-3.17,7.31,38.2,38.2,0,0,0-1.77,6.72,25.5,25.5,0,0,0,.07,8.77,18.58,18.58,0,0,0,3,7.31,16,16,0,0,0,5.71,5,17.45,17.45,0,0,0,8.24,1.85,47.17,47.17,0,0,0,7.89-.61,44.5,44.5,0,0,0,6.71-1.65,39.29,39.29,0,0,0,5.73-2.42,56.14,56.14,0,0,0,4.93-2.89c1.52-1,3-2,4.3-3.06s2.64-2,3.88-2.95S-243,254.52-245.07,255.64Z" transform="translate(471.82 589.26)"/><path class="cls-9" d="M-111.24,228.92a2.47,2.47,0,0,0-.81-1.15,3.72,3.72,0,0,0-1.37-.66,7.18,7.18,0,0,0-1.78-.21,6.75,6.75,0,0,0-2.63.47,6.15,6.15,0,0,0-1.82,1.14,5.39,5.39,0,0,0-1.12,1.45,4.91,4.91,0,0,0-.49,1.38,3.41,3.41,0,0,0,.69,2.93,4.3,4.3,0,0,0,3.38,1.1,6.66,6.66,0,0,0,2.45-.41,6.09,6.09,0,0,0,1.83-1.07,5.07,5.07,0,0,0,1.19-1.52,5.63,5.63,0,0,0,.58-1.75A3.37,3.37,0,0,0-111.24,228.92Z" transform="translate(471.82 589.26)"/><path class="cls-9" d="M-131.69,254.86a.11.11,0,0,0-.08,0c-.87.54-1.77,1.06-2.71,1.54a27.65,27.65,0,0,1-3.8,1.6,11.42,11.42,0,0,1-3.56.64,4.06,4.06,0,0,1-.95-.11,2.34,2.34,0,0,1-.8-.37,2.8,2.8,0,0,1-.69-.75,6.63,6.63,0,0,1-.52-1,1.47,1.47,0,0,1-.1-.22l.19-.05.11,0h0a22.54,22.54,0,0,0,4.39-1.69,20.46,20.46,0,0,0,3.93-2.6,15.22,15.22,0,0,0,2.8-3.11,8.39,8.39,0,0,0,1.36-3.29,6.21,6.21,0,0,0-.12-2.74,4.79,4.79,0,0,0-1.19-2.08,5.54,5.54,0,0,0-2.07-1.34,7.54,7.54,0,0,0-2.76-.48,9.64,9.64,0,0,0-3.54.65,12.49,12.49,0,0,0-3.07,1.75,15.89,15.89,0,0,0-2.57,2.55,20.63,20.63,0,0,0-2,3,20.21,20.21,0,0,0-1.43,3.25c-.16.47-.29.93-.41,1.38a23.57,23.57,0,0,1-.51,2.82c0,.08,0,.15,0,.23l0,0a21.62,21.62,0,0,1-3.65,7.6.28.28,0,0,1-.07.09.13.13,0,0,0,0,.06.18.18,0,0,0,.17.17h0l.09,0h0c.79-.36,1.55-.71,2.29-1.09s1.43-.76,2.16-1.16c.15.28.31.56.49.83a7.39,7.39,0,0,0,2.83,2.43,9.58,9.58,0,0,0,4.35.9,15.43,15.43,0,0,0,3.3-.35,22.36,22.36,0,0,0,3.24-1c.64-.24,1.27-.51,1.88-.8a1.28,1.28,0,0,0,.55-.48,18.85,18.85,0,0,0,2.62-6.73A.11.11,0,0,0-131.69,254.86Zm-12.86-4.45a15.45,15.45,0,0,1,.51-1.7,11.25,11.25,0,0,1,.79-1.74,6.8,6.8,0,0,1,1.15-1.54,5.34,5.34,0,0,1,1.57-1.1,4.7,4.7,0,0,1,2.07-.43,1.07,1.07,0,0,1,1,.77,3.55,3.55,0,0,1,.14,2,3.5,3.5,0,0,1-1,1.75,11.1,11.1,0,0,1-2,1.67,11.18,11.18,0,0,1-2.36,1.26,6.09,6.09,0,0,1-2.22.49C-144.76,251.42-144.67,251-144.55,250.41Z" transform="translate(471.82 589.26)"/><path class="cls-9" d="M-140.82,215.2a2.89,2.89,0,0,0-1-1.37,3,3,0,0,0-1.86-.52,7.36,7.36,0,0,0-3.55,1,17.3,17.3,0,0,0-3.64,2.77,34.47,34.47,0,0,0-3.58,4.15,60.43,60.43,0,0,0-3.4,5.11c-1.08,1.82-2.09,3.73-3,5.71s-1.8,3.95-2.57,5.92-1.42,3.87-1.95,5.72a41.37,41.37,0,0,0-1.16,5.14,30.77,30.77,0,0,0-.4,5.88c0,.22,0,.42,0,.63-.44.28-.88.57-1.35.83-.74.42-1.46.79-2.15,1.12a15.91,15.91,0,0,1-2,.78,5,5,0,0,1-1.51.29,1.06,1.06,0,0,1-.79-.25,1.2,1.2,0,0,1-.31-.72,4.32,4.32,0,0,1,0-1.08c.05-.42.11-.88.19-1.37.05-.27.18-.74.39-1.42s.49-1.48.8-2.38l1-2.92c.36-1,.71-2.06,1-3s.61-1.89.85-2.71a17.81,17.81,0,0,0,.48-1.95,1.17,1.17,0,0,0-.63-1.22,4,4,0,0,0-2.14-.48,5.81,5.81,0,0,0-2.27.44,2.15,2.15,0,0,0-1.28,1.07l-4.84,13.49a8.67,8.67,0,0,1-1,1.9,7.46,7.46,0,0,1-1.22,1.41,5.41,5.41,0,0,1-1.33.87,3,3,0,0,1-1.28.31,1.08,1.08,0,0,1-.68-.21,1.37,1.37,0,0,1-.4-.56,2.35,2.35,0,0,1-.16-.78,4.12,4.12,0,0,1,.05-.92s.08-.29.25-.82l.67-2.1c.29-.87.61-1.85,1-3s.72-2.25,1.11-3.41.77-2.33,1.14-3.48.72-2.2,1-3.14q.08-.45-.51-.75a4.93,4.93,0,0,0-2-.36,3.6,3.6,0,0,0-1.64.45,5.58,5.58,0,0,0-1.39,1.09,9,9,0,0,0-1.14,1.49,17.6,17.6,0,0,0-.9,1.62c-.26.53-.47,1-.64,1.47s-.3.81-.38,1.08c-.46,1.35-.89,2.62-1.29,3.83l0,.29c-1.62,5.63-2.4,9.23-2.4,11.17a3.81,3.81,0,0,0,.6,1.75,2.88,2.88,0,0,0,1.26,1,4.53,4.53,0,0,0,1.65.29,7,7,0,0,0,2.32-.44,13.53,13.53,0,0,0,2.49-1.21,20.93,20.93,0,0,0,2.52-1.82,29,29,0,0,0,2.44-2.29,15.22,15.22,0,0,0,.29,2.21,5.7,5.7,0,0,0,.63,1.72,3.06,3.06,0,0,0,1.09,1.11,3.32,3.32,0,0,0,1.72.4,10.41,10.41,0,0,0,2.29-.28,22.59,22.59,0,0,0,2.55-.74q1.31-.47,2.61-1.08c.88-.41,1.71-.83,2.5-1.27l.31-.18a1,1,0,0,1,1.47.51,7.7,7.7,0,0,0,1.21,2,3.24,3.24,0,0,0,2.55,1.26h.08l.14-.11a17.76,17.76,0,0,0,5.78-7h0a.54.54,0,0,0,.05-.11h0a.17.17,0,0,0-.17-.17h0l-.06,0h0l-.18.08a12.6,12.6,0,0,1-1.51.57,4.45,4.45,0,0,1-1.22.22c-.15,0-.29-.11-.42-.31a2.9,2.9,0,0,1-.33-.82,6.5,6.5,0,0,1-.19-1.17,6.1,6.1,0,0,1,.06-1.34l.06-.37c.11-.36.24-.72.39-1.09s.3-.72.44-1.05.29-.63.44-.92a6.54,6.54,0,0,1,.39-.69q1.64-2.38,3.47-4.9c1.22-1.67,2.45-3.37,3.67-5.1s2.41-3.46,3.56-5.21,2.2-3.5,3.14-5.25a44.61,44.61,0,0,0,2.41-5.2,25.18,25.18,0,0,0,1.4-5.09,14.89,14.89,0,0,0,.17-2.19A5.94,5.94,0,0,0-140.82,215.2Zm-5.8,5.45c0,.35-.09.76-.16,1.25l0,.13a29.24,29.24,0,0,1-2,5.16c-.9,1.86-1.9,3.73-3,5.61s-2.28,3.7-3.48,5.47l-.32.47a1,1,0,0,1-1.85-.88s1.18-3.6,1.89-5.3,1.45-3.3,2.25-4.8a36.28,36.28,0,0,1,2.38-4,17.58,17.58,0,0,1,2.25-2.7,3,3,0,0,1,1.87-1Q-146.57,220.11-146.62,220.65Z" transform="translate(471.82 589.26)"/><path class="cls-9" d="M-203,215.2a2.87,2.87,0,0,0-1-1.37,3,3,0,0,0-1.86-.52,7.36,7.36,0,0,0-3.55,1,17.3,17.3,0,0,0-3.64,2.77,34.47,34.47,0,0,0-3.58,4.15,58.1,58.1,0,0,0-3.4,5.11c-1.08,1.82-2.09,3.73-3,5.71s-1.79,3.95-2.56,5.92-1.42,3.87-1.95,5.72a43.42,43.42,0,0,0-1.17,5.14c-.06.39-.11.78-.16,1.17l-.37.05-1.73.29a.7.7,0,0,1-.75-1l.75-1.45c.45-.87.86-1.67,1.22-2.41s.66-1.4.9-2a7.06,7.06,0,0,0,.44-1.4,1.48,1.48,0,0,0-.34-1.33,3,3,0,0,0-2.05-.49,6.38,6.38,0,0,0-1.39.18,7.11,7.11,0,0,0-1.54.55,5.85,5.85,0,0,0-1.41,1,3.89,3.89,0,0,0-1,1.44c-.57,1.17-1.18,2.43-1.84,3.76s-1.32,2.7-2,4.11h-2l-.94,0a.7.7,0,0,1-.57-1.06c.89-1.45,1.74-2.88,2.57-4.28q1.53-2.58,2.85-5.09c.88-1.67,1.68-3.32,2.4-5a46.11,46.11,0,0,0,1.84-5c0-.15-.06-.29-.26-.44a2.56,2.56,0,0,0-.84-.34c-.35-.08-.78-.15-1.27-.21a15.59,15.59,0,0,0-1.58-.08,20.23,20.23,0,0,0-2,.11,14.07,14.07,0,0,0-2,.36,8,8,0,0,0-1.58.6,2.24,2.24,0,0,0-1,.88c-.57,1.58-1.08,3-1.55,4.28s-.92,2.45-1.35,3.54-.86,2.13-1.28,3.11-.87,1.94-1.33,2.91-1,2-1.53,3-1.14,2.1-1.78,3.27a1,1,0,0,1-.08.11,19.64,19.64,0,0,0-1.74,2.36,5.34,5.34,0,0,0-.85,2,1.67,1.67,0,0,0,.1,1,.79.79,0,0,0,.8.42,10.46,10.46,0,0,0,2.8-.4c1-.27,2-.58,3.07-.91s2.22-.64,3.42-.91a16.23,16.23,0,0,1,2.77-.38.71.71,0,0,1,.7,1c-.37.89-.69,1.75-1,2.58a17.17,17.17,0,0,0-.81,3,5,5,0,0,0,0,1.9,2,2,0,0,0,.67,1.15,2.56,2.56,0,0,0,1.28.57,10,10,0,0,0,1.85.15c.92,0,1.88,0,2.88-.11s2-.12,3-.12a.78.78,0,0,0,.43-.08.33.33,0,0,0,.12-.24,1.54,1.54,0,0,0-.33-1l-.84-1.35c-.3-.49-.57-1-.82-1.48a2.29,2.29,0,0,1-.27-1.33l.1-.62a15.4,15.4,0,0,1,.56-1.87c.18-.51.38-1,.6-1.57a.73.73,0,0,1,.69-.44l2.38.09c.68,0,1.34,0,2,.05a.68.68,0,0,1,.67.64,19.07,19.07,0,0,0,.61,3.57,8.85,8.85,0,0,0,1.68,3.38,3.61,3.61,0,0,0,.95.82.65.65,0,0,0,.66,0c2.19-1.33,5.32-3.65,6.86-6.84a.05.05,0,0,0,0,0,.06.06,0,0,0-.06-.05h0l-.25.12a12.6,12.6,0,0,1-1.51.57,4.45,4.45,0,0,1-1.23.22c-.14,0-.28-.11-.41-.31a2.89,2.89,0,0,1-.34-.82,6.54,6.54,0,0,1-.18-1.17,6.1,6.1,0,0,1,.06-1.34l.06-.37c.11-.36.24-.72.39-1.09s.3-.72.44-1.05.29-.63.43-.92.28-.51.4-.69q1.64-2.38,3.47-4.9t3.67-5.1c1.22-1.72,2.4-3.46,3.56-5.21s2.2-3.5,3.14-5.25a46.32,46.32,0,0,0,2.41-5.2,24.5,24.5,0,0,0,1.39-5.09,12.58,12.58,0,0,0,.17-2.19A5.45,5.45,0,0,0-203,215.2Zm-5.8,5.45c0,.35-.08.78-.16,1.27a.29.29,0,0,1,0,.09,29.39,29.39,0,0,1-2,5.18c-.9,1.86-1.9,3.73-3,5.61s-2.28,3.7-3.48,5.47c-.5.74-1,1.45-1.46,2.12a.7.7,0,0,1-1.25-.57c.17-.66.35-1.33.55-2,.54-1.8,1.17-3.55,1.87-5.25s1.46-3.3,2.26-4.8a36.32,36.32,0,0,1,2.37-4,17.58,17.58,0,0,1,2.26-2.7,3,3,0,0,1,1.87-1C-208.8,220.11-208.75,220.29-208.78,220.65Z" transform="translate(471.82 589.26)"/><path class="cls-9" d="M-200.6,245.39a3.22,3.22,0,0,0,0-1.06.47.47,0,0,0-.53-.43,3.82,3.82,0,0,0-2,.52,6,6,0,0,0-1.56,1.35,8.65,8.65,0,0,0-1.19,1.89,19,19,0,0,0-.85,2.08,15.77,15.77,0,0,0-.56,2c-.14.63-.24,1.16-.31,1.58a11.75,11.75,0,0,0-.13,2,5.06,5.06,0,0,0,.36,1.9,3.43,3.43,0,0,0,1.12,1.44,3.39,3.39,0,0,0,2.09.57,7.33,7.33,0,0,0,3-.79,25.18,25.18,0,0,0,3.5-2c.77-.51,1.52-1.07,2.27-1.66a.24.24,0,0,1,.39.23,13.06,13.06,0,0,1-5.36,7.71,14,14,0,0,1-2.88,1.15,10.34,10.34,0,0,1-2.93.43,9.26,9.26,0,0,1-4.27-.9,7.61,7.61,0,0,1-2.81-2.41c-.12-.18-.23-.38-.34-.57-.54.3-1.08.61-1.62.88-.75.38-1.53.74-2.32,1.11-.52.23-1.05.45-1.57.65,0,0,0,0,0-.05,2.54-2.59,5-12.05,5.33-12.89a20.76,20.76,0,0,1,1.49-3.27,20.91,20.91,0,0,1,2.07-3.07,15.28,15.28,0,0,1,2.59-2.56,12.65,12.65,0,0,1,3.06-1.76,9.3,9.3,0,0,1,3.46-.65,8,8,0,0,1,2.81.47,5.53,5.53,0,0,1,2.07,1.29,4.72,4.72,0,0,1,1.17,1.95,5.31,5.31,0,0,1,.14,2.43,7.36,7.36,0,0,1-.52,1.78,6.87,6.87,0,0,1-1,1.58,4.74,4.74,0,0,1-1.34,1.12,3.12,3.12,0,0,1-1.6.43c-.86,0-1.38-.22-1.58-.66a3.46,3.46,0,0,1-.1-1.84c.05-.32.12-.65.2-1S-200.64,245.67-200.6,245.39Z" transform="translate(471.82 589.26)"/><path class="cls-9" d="M-218.24,257a.05.05,0,0,1,0,0l0,0a.06.06,0,0,1,0-.06s0,0,0,0h0A.06.06,0,0,1-218.24,257Z" transform="translate(471.82 589.26)"/><path class="cls-9" d="M-144.82,256.38a.29.29,0,0,0,0,.09,1.47,1.47,0,0,1-.1-.22l.19-.05A.19.19,0,0,0-144.82,256.38Z" transform="translate(471.82 589.26)"/><text class="cls-10" transform="translate(540.01 636.48)">C<tspan class="cls-11" x="6.71" y="0">OR: #F59911</tspan></text></svg>