<svg id="Camada_1" data-name="Camada 1" xmlns="http://www.w3.org/2000/svg" viewBox="0 0 206.82 87.52"><defs><style>.cls-1{fill:#ff9100;}</style></defs><path class="cls-1" d="M175.61,57.73c-.78.5-1.51,1-2.24,1.34a4.25,4.25,0,0,1-1.9.55.75.75,0,0,1-.84-.58,4.42,4.42,0,0,1,0-1.58,15.21,15.21,0,0,1,.59-2.29c.29-.84.62-1.71,1-2.6s.76-1.78,1.15-2.67l1.13-2.49c.34-.77.64-1.46.89-2.07a6.9,6.9,0,0,0,.45-1.4,1.11,1.11,0,0,0-.19-.92,1.65,1.65,0,0,0-1.25-.34,6.73,6.73,0,0,0-1.18.12,7.51,7.51,0,0,0-1.31.37,4.8,4.8,0,0,0-1.19.67,2.47,2.47,0,0,0-.79,1c-.45,1.1-1,2.31-1.51,3.62s-1.11,2.62-1.64,3.93c-.31.78-.59,1.53-.86,2.27-.42.31-.88.63-1.38,1a30,30,0,0,1-3,1.74,23.66,23.66,0,0,1-3.15,1.32,9.56,9.56,0,0,1-3,.53,3.24,3.24,0,0,1-.79-.09,1.79,1.79,0,0,1-.67-.31,2.3,2.3,0,0,1-.57-.62,5.61,5.61,0,0,1-.52-1,18,18,0,0,0,3.91-1.48,16.78,16.78,0,0,0,3.26-2.16A13,13,0,0,0,162.41,51a6.89,6.89,0,0,0,1.12-2.73,5.22,5.22,0,0,0-.09-2.28,4.2,4.2,0,0,0-1-1.73,4.57,4.57,0,0,0-1.72-1.11,6.2,6.2,0,0,0-2.3-.4,7.9,7.9,0,0,0-2.93.54A10.1,10.1,0,0,0,153,44.7a12.56,12.56,0,0,0-2.14,2.11A17.26,17.26,0,0,0,147.93,52a16,16,0,0,0-.66,2.62c-.06.36-.09.71-.12,1.06-.35.21-.7.44-1,.63s-.92.53-1.4.79-.94.48-1.39.68a11.33,11.33,0,0,1-1.26.48,3.86,3.86,0,0,1-1,.17c-.13,0-.24-.08-.35-.25a2.58,2.58,0,0,1-.28-.68,6.53,6.53,0,0,1-.15-1,4.64,4.64,0,0,1,.05-1.11l0-.31c.09-.29.2-.59.32-.9s.25-.6.37-.87.24-.53.36-.77a6.3,6.3,0,0,1,.33-.57c.9-1.32,1.87-2.68,2.88-4.07s2-2.8,3.05-4.23,2-2.88,2.95-4.34,1.83-2.91,2.61-4.35a37.19,37.19,0,0,0,2-4.33,20.3,20.3,0,0,0,1.15-4.22,11.45,11.45,0,0,0,.15-1.82,4.92,4.92,0,0,0-.26-1.6,2.44,2.44,0,0,0-.82-1.14,2.55,2.55,0,0,0-1.55-.43,6.12,6.12,0,0,0-3,.84,14.22,14.22,0,0,0-3,2.31,28.23,28.23,0,0,0-3,3.44,44.57,44.57,0,0,0-2.82,4.24q-1.35,2.28-2.53,4.75T137.51,42c-.64,1.64-1.17,3.22-1.61,4.76a35,35,0,0,0-1,4.27,25.83,25.83,0,0,0-.33,4.88l0,.53c-.37.23-.73.47-1.12.69-.61.34-1.21.65-1.79.92a13.45,13.45,0,0,1-1.63.65,4,4,0,0,1-1.25.25.9.9,0,0,1-.66-.21,1,1,0,0,1-.26-.6,3.9,3.9,0,0,1,0-.9c0-.35.09-.73.16-1.14a8.88,8.88,0,0,1,.32-1.18c.18-.57.4-1.22.67-2s.54-1.56.85-2.43.59-1.71.86-2.53.51-1.56.71-2.25a12.88,12.88,0,0,0,.39-1.62,1,1,0,0,0-.52-1,3.22,3.22,0,0,0-1.77-.4,4.86,4.86,0,0,0-1.89.36,1.75,1.75,0,0,0-1.06.9l-4,11.2a7.07,7.07,0,0,1-.79,1.58,6.59,6.59,0,0,1-1,1.17,4.29,4.29,0,0,1-1.1.73,2.55,2.55,0,0,1-1.06.25.89.89,0,0,1-.56-.17,1.17,1.17,0,0,1-.34-.47,2.14,2.14,0,0,1-.14-.65,3.31,3.31,0,0,1,.05-.76s.07-.24.21-.68.32-1,.56-1.75.5-1.54.8-2.46.6-1.86.92-2.83.64-1.93,1-2.89.59-1.82.85-2.6q.06-.37-.42-.63a4.24,4.24,0,0,0-1.68-.3,2.92,2.92,0,0,0-1.36.38,4.53,4.53,0,0,0-1.16.9,7.92,7.92,0,0,0-.94,1.24,12.11,12.11,0,0,0-.75,1.34q-.31.66-.54,1.23c-.14.37-.24.67-.31.89-.72,2.11-1.34,4-1.87,5.66-.3.27-.58.53-.9.8a31.24,31.24,0,0,1-2.88,2.19A20.59,20.59,0,0,1,106.22,59a6.18,6.18,0,0,1-2.51.65,2.88,2.88,0,0,1-1.74-.47,2.78,2.78,0,0,1-.92-1.2,4.18,4.18,0,0,1-.31-1.57,9.92,9.92,0,0,1,.11-1.66c.06-.35.14-.79.26-1.31a15.22,15.22,0,0,1,.46-1.64,18,18,0,0,1,.71-1.73,6.75,6.75,0,0,1,1-1.57,5,5,0,0,1,1.3-1.13,3.26,3.26,0,0,1,1.66-.43.4.4,0,0,1,.44.36,2.68,2.68,0,0,1,0,.88,7.91,7.91,0,0,1-.16.79c-.07.3-.12.58-.16.84a2.62,2.62,0,0,0,.09,1.52c.16.37.59.55,1.3.55A2.6,2.6,0,0,0,109,51.5a4,4,0,0,0,1.12-.94,5.77,5.77,0,0,0,.81-1.31,6.12,6.12,0,0,0,.44-1.48,4.34,4.34,0,0,0-.13-2,3.92,3.92,0,0,0-1-1.63,4.75,4.75,0,0,0-1.71-1.07,6.92,6.92,0,0,0-2.34-.38,7.76,7.76,0,0,0-2.88.54,10.3,10.3,0,0,0-2.53,1.45,13.18,13.18,0,0,0-2.16,2.13A18.68,18.68,0,0,0,97,49.35a17.52,17.52,0,0,0-1.24,2.73A14.32,14.32,0,0,0,95,54.74a10.62,10.62,0,0,0-.13,1.35l-.42.26c-.46.27-.92.53-1.4.79s-.94.48-1.39.68a11.33,11.33,0,0,1-1.26.48,3.86,3.86,0,0,1-1,.17c-.13,0-.24-.08-.35-.25a2.58,2.58,0,0,1-.28-.68c0-.07,0-.14,0-.2v0a3.49,3.49,0,0,0-.11-.81,4.59,4.59,0,0,1,0-1l0-.31c.09-.29.2-.59.32-.9s.25-.6.37-.87.24-.53.36-.77a6.3,6.3,0,0,1,.33-.57C91,50.71,92,49.35,93,48s2-2.8,3-4.23,2-2.88,3-4.34,1.83-2.91,2.61-4.35a37.19,37.19,0,0,0,2-4.33,20.3,20.3,0,0,0,1.15-4.22,11.45,11.45,0,0,0,.15-1.82,4.92,4.92,0,0,0-.26-1.6,2.44,2.44,0,0,0-.82-1.14,2.57,2.57,0,0,0-1.55-.43,6.12,6.12,0,0,0-3,.84,14.22,14.22,0,0,0-3,2.31,28.23,28.23,0,0,0-3,3.44,44.57,44.57,0,0,0-2.82,4.24Q89.19,34.61,88,37.08T85.88,42c-.64,1.64-1.17,3.22-1.62,4.76a36.82,36.82,0,0,0-1,4.27c-.05.32-.09.65-.13,1C83,53,83,56.5,83,56.5a17.06,17.06,0,0,0,.19,1.84,4.77,4.77,0,0,1-2.78,1.15c-.74,0-1.11-.52-1.11-1.57a2.68,2.68,0,0,1,.07-.71L81.19,46v-.39c0-1.13-.61-1.69-1.82-1.69h-1.5v-.4c0-.91-.9-1.36-2.68-1.36q-4.75,0-9,4.59A15.13,15.13,0,0,0,62,57.21a7.92,7.92,0,0,0,1.6,5.12,5.42,5.42,0,0,0,1.14,1.06c-6.63,2.65-17.19,5.79-24.16,3A8,8,0,0,1,37.2,64a9.11,9.11,0,0,1-1.73-4.06,17,17,0,0,1,.07-5.72,32.12,32.12,0,0,1,1.27-5,56.73,56.73,0,0,1,2.25-5.62q1.35-2.9,3.07-5.82a64.82,64.82,0,0,1,3.73-5.6,56.77,56.77,0,0,1,4.23-5A33.42,33.42,0,0,1,54.66,23a22.94,22.94,0,0,1,4.74-2.73,12.34,12.34,0,0,1,4.77-1c10.37,1.95.23,15.89-7.13,16.77a6.08,6.08,0,1,0-3.49,11.06s2.52.5,8.05-2.58h0a24.63,24.63,0,0,0,3.58-1.82,28.48,28.48,0,0,0,4.46-3.36,31.14,31.14,0,0,0,3.82-4.16,25.92,25.92,0,0,0,2.85-4.62,17.23,17.23,0,0,0,1.53-4.76,13.21,13.21,0,0,0-.27-6.09A10.18,10.18,0,0,0,71.12,13a14,14,0,0,0-4.67-.81,23.21,23.21,0,0,0-7.2,1.15,32.88,32.88,0,0,0-6.93,3.17,45.11,45.11,0,0,0-6.5,4.75A57.48,57.48,0,0,0,40,27.13a66.53,66.53,0,0,0-5.08,6.66,67.94,67.94,0,0,0-4.1,7,57.84,57.84,0,0,0-3,6.85,36.07,36.07,0,0,0-1.65,6.29,24,24,0,0,0,.06,8.21A17.67,17.67,0,0,0,29,69a15,15,0,0,0,5.35,4.68,16.24,16.24,0,0,0,7.71,1.74,37.28,37.28,0,0,0,7.39-.57c12.76-2.65,19.71-7.7,23.41-12.06a8.65,8.65,0,0,0,2.4-2.86v-.13a5,5,0,0,0,1.46,3.1A4.77,4.77,0,0,0,80.12,64a7.89,7.89,0,0,0,4.47-1.64,5.48,5.48,0,0,0,.34.46,2.7,2.7,0,0,0,2.12,1,7.52,7.52,0,0,0,1.69-.2,16.25,16.25,0,0,0,1.91-.57c.66-.23,1.32-.5,2-.8s1.3-.61,1.93-.92l1.34-.73a4.57,4.57,0,0,0,.29.47,6.07,6.07,0,0,0,2.33,2,7.53,7.53,0,0,0,3.54.75,8.64,8.64,0,0,0,2.44-.36,15.15,15.15,0,0,0,2.4-1,19.22,19.22,0,0,0,2.27-1.33c.74-.5,1.43-1,2.08-1.55l.4-.34a7.2,7.2,0,0,0,0,2,3.46,3.46,0,0,0,.57,1.51,2.37,2.37,0,0,0,1,.82,3.75,3.75,0,0,0,1.37.24,5.84,5.84,0,0,0,1.93-.36,11.18,11.18,0,0,0,2.06-1,17.18,17.18,0,0,0,2.1-1.51,24,24,0,0,0,2-1.91A13.22,13.22,0,0,0,123,61a4.63,4.63,0,0,0,.52,1.43,2.59,2.59,0,0,0,.91.92,2.76,2.76,0,0,0,1.42.33,8.39,8.39,0,0,0,1.9-.23,18.48,18.48,0,0,0,2.12-.61c.72-.26,1.45-.56,2.18-.9s1.42-.69,2.07-1.06c.41-.22.78-.45,1.14-.67a7.49,7.49,0,0,0,1.34,2.65,2.7,2.7,0,0,0,2.12,1,7.52,7.52,0,0,0,1.69-.2,16.25,16.25,0,0,0,1.91-.57c.66-.23,1.32-.5,2-.8s1.3-.61,1.92-.92,1.19-.63,1.79-1a7.2,7.2,0,0,0,.42.7,6,6,0,0,0,2.35,2,7.77,7.77,0,0,0,3.61.75,12.83,12.83,0,0,0,2.74-.29,18.93,18.93,0,0,0,2.69-.8,24.35,24.35,0,0,0,2.55-1.13c.74-.39,1.44-.79,2.1-1.19a6.87,6.87,0,0,0,0,.8,2.82,2.82,0,0,0,.49,1.4,2.73,2.73,0,0,0,1.16.9,5.12,5.12,0,0,0,1.94.31,8.4,8.4,0,0,0,2.86-.46c4.86-1.74,8.91-8.71,8.91-8.71C180.35,53.64,177.32,56.65,175.61,57.73Zm-22.4-5.41a11.67,11.67,0,0,1,.41-1.41,11,11,0,0,1,.66-1.45,6.12,6.12,0,0,1,1-1.28,4.47,4.47,0,0,1,1.3-.91,3.92,3.92,0,0,1,1.72-.36.89.89,0,0,1,.82.64,3,3,0,0,1,.12,1.64,2.91,2.91,0,0,1-.8,1.45A9.24,9.24,0,0,1,156.78,52a9.5,9.5,0,0,1-2,1,5.1,5.1,0,0,1-1.84.41C153,53.16,153.1,52.77,153.21,52.32Zm-10.7-10.47a46,46,0,0,1,1.55-4.36c.59-1.41,1.21-2.74,1.87-4a30.49,30.49,0,0,1,2-3.28A13.43,13.43,0,0,1,149.78,28a2.5,2.5,0,0,1,1.55-.83c.13,0,.17.15.15.45s-.07.67-.14,1.09A24.67,24.67,0,0,1,149.7,33c-.75,1.55-1.58,3.1-2.51,4.66s-1.89,3.08-2.89,4.55-1.93,2.79-2.8,4A32.43,32.43,0,0,1,142.51,41.85Zm-51.63,0c.45-1.49,1-2.94,1.55-4.36s1.21-2.74,1.87-4a30.49,30.49,0,0,1,2-3.28A13.43,13.43,0,0,1,98.15,28a2.49,2.49,0,0,1,1.56-.83c.12,0,.16.15.14.45s-.07.67-.14,1.09A24.67,24.67,0,0,1,98.07,33c-.75,1.55-1.58,3.1-2.51,4.66s-1.89,3.08-2.89,4.55-1.93,2.79-2.8,4A32.43,32.43,0,0,1,90.88,41.85Zm-21,7.92q3-3.59,6.78-3.59l-1.76,7.31a11,11,0,0,1-2.18,4.3,4.44,4.44,0,0,1-3.37,2c-1.65,0-2.47-1.06-2.47-3.2S67.91,52.16,69.91,49.77Z"/><path class="cls-1" d="M180.87,34.47a2.12,2.12,0,0,0-.67-1,3.18,3.18,0,0,0-1.14-.54,6.33,6.33,0,0,0-1.48-.17,5.56,5.56,0,0,0-2.18.38,5.2,5.2,0,0,0-1.51,1,4.63,4.63,0,0,0-.93,1.2,3.82,3.82,0,0,0-.41,1.15,2.84,2.84,0,0,0,.57,2.44,3.58,3.58,0,0,0,2.8.91,5.61,5.61,0,0,0,2.05-.34,5.11,5.11,0,0,0,1.51-.89,4.45,4.45,0,0,0,1-1.26,4.91,4.91,0,0,0,.48-1.46A2.94,2.94,0,0,0,180.87,34.47Z"/></svg>