<?xml version="1.0" encoding="UTF-8"?><svg id="a" xmlns="http://www.w3.org/2000/svg" viewBox="0 0 37.39 45.27"><defs><style>.b{fill:#ff9100;}</style></defs><path class="b" d="M36.84,33.32c.22-.13,.5-1.09,.16-1.47-.66-.74-.89-.87-1.91-.68-.24,.05-.5,.16-.75,.31-.15,.27-3.05,2.33-4.93,3.77-1.55,1.19-3.3,2.1-5.16,2.69-4.44,1.41-9.84,2.4-13.7,.86-.94-.35-1.78-.94-2.42-1.71-.64-.85-1.07-1.85-1.24-2.91-.21-1.36-.2-2.74,.05-4.1,.21-1.22,.51-2.41,.91-3.58,.46-1.37,1-2.71,1.61-4.02,.64-1.38,1.38-2.77,2.2-4.17,.82-1.38,1.71-2.72,2.67-4.01,.94-1.25,1.95-2.45,3.03-3.58,1-1.1,2.09-2.1,3.27-2.99,1.05-.78,2.19-1.44,3.39-1.95,1.08-.46,2.24-.71,3.41-.72,7.42,1.4,.16,11.38-5.1,12.01-2.21-1.55-5.35-.76-6.5,1.84-.5,1.13-.48,2.46,.06,3.58,.77,1.59,2.32,2.5,3.94,2.5,0,0,1.8,.36,5.76-1.85,.89-.36,1.75-.8,2.56-1.3,1.14-.7,2.21-1.5,3.19-2.41,1-.91,1.92-1.9,2.73-2.98,.79-1.03,1.48-2.14,2.04-3.31,.53-1.08,.9-2.22,1.1-3.41,.28-1.45,.21-2.94-.19-4.36-.67-2.25-2.39-4.04-4.62-4.8C31.34,.2,30.21,0,29.07,0c-1.75,0-3.49,.28-5.15,.82-1.74,.56-3.4,1.32-4.96,2.27-1.65,.99-3.21,2.13-4.65,3.4-1.49,1.3-2.88,2.7-4.17,4.2-1.31,1.51-2.53,3.1-3.64,4.77-1.08,1.61-2.06,3.28-2.94,5.01-.82,1.59-1.54,3.22-2.15,4.9-.53,1.46-.92,2.97-1.18,4.5-.32,1.95-.31,3.94,.04,5.88,.31,1.76,.98,3.43,1.98,4.91,.99,1.41,2.3,2.56,3.83,3.35,1.71,.86,3.61,1.29,5.52,1.25,1.77,.04,3.55-.1,5.29-.41,9.14-1.9,19.31-11.16,19.94-11.54Z"/></svg>